<?xml version="1.0" encoding="iso-8859-1"?>
<!-- Generator: Adobe Illustrator 20.1.0, SVG Export Plug-In . SVG Version: 6.00 Build 0)  -->
<svg version="1.1" id="&#x421;&#x43B;&#x43E;&#x439;_1"
	 xmlns="http://www.w3.org/2000/svg" xmlns:xlink="http://www.w3.org/1999/xlink" x="0px" y="0px" viewBox="0 0 15 15"
	 style="enable-background:new 0 0 15 15;" xml:space="preserve">
<g>
	<path style="fill:#CDCCCC;" d="M7.5,0C3.377,0,0,3.377,0,7.5C0,11.623,3.377,15,7.5,15c4.123,0,7.5-3.377,7.5-7.5
		C15,3.377,11.623,0,7.5,0L7.5,0z M8.251,12.752H6.749V11.25h1.502V12.752z M9.825,6.976L9.152,7.65
		C8.551,8.174,8.251,8.624,8.251,9.748H6.749V9.375c0-0.824,0.301-1.575,0.901-2.098l0.901-0.978c0.3-0.224,0.451-0.601,0.451-1.047
		c0-0.828-0.678-1.502-1.502-1.502c-0.824,0-1.502,0.674-1.502,1.502H4.501c0-1.652,1.347-3.004,2.999-3.004
		s2.999,1.352,2.999,3.004C10.499,5.925,10.199,6.526,9.825,6.976L9.825,6.976z M9.825,6.976"/>
</g>
</svg>
