<?xml version="1.0" encoding="iso-8859-1"?>
<!-- Generator: Adobe Illustrator 20.1.0, SVG Export Plug-In . SVG Version: 6.00 Build 0)  -->
<svg version="1.1" id="&#x421;&#x43B;&#x43E;&#x439;_1"
	 xmlns="http://www.w3.org/2000/svg" xmlns:xlink="http://www.w3.org/1999/xlink" x="0px" y="0px" viewBox="0 0 13.662 15"
	 style="enable-background:new 0 0 13.662 15;" xml:space="preserve">
<g>
	<g>
		<defs>
			<rect id="SVGID_1_" x="0" width="13.662" height="15"/>
		</defs>
		<clipPath id="SVGID_2_">
			<use xlink:href="#SVGID_1_"  style="overflow:visible;"/>
		</clipPath>
		<path style="clip-path:url(#SVGID_2_);fill:#CDCCCC;" d="M8.472,3.9c0.046-0.128,0.079-0.257,0.104-0.385
			C8.979,1.1,7.787,1.014,7.787,1.014S7.589,0.635,7.07,0.348C6.721,0.141,6.236-0.018,5.597,0.037
			C5.39,0.046,5.194,0.085,5.011,0.15c-0.235,0.079-0.449,0.196-0.644,0.33c-0.238,0.153-0.464,0.336-0.663,0.55
			C3.389,1.35,3.108,1.769,2.986,2.288C2.885,2.676,2.906,3.082,2.992,3.516C3.017,3.644,3.05,3.772,3.096,3.9
			C2.858,3.879,2.577,4.016,2.842,4.948c0.186,0.684,0.367,0.874,0.504,0.886c0.125,0.812,0.751,1.842,1.781,2.205
			c0.422,0.15,0.886,0.15,1.304-0.003C7.445,7.669,8.09,6.643,8.215,5.834c0.137-0.012,0.315-0.202,0.51-0.886
			C8.988,4.014,8.71,3.876,8.472,3.9L8.472,3.9z M8.472,3.9"/>
		<path style="clip-path:url(#SVGID_2_);fill:#CDCCCC;" d="M11.33,10.302C10.045,10.299,9,11.344,9,12.633
			c0,1.289,1.045,2.33,2.33,2.33c1.289,0,2.33-1.045,2.33-2.33C13.661,11.344,12.616,10.302,11.33,10.302L11.33,10.302z
			 M11.48,13.146l-0.449,0.446l-0.446-0.449l-0.431-0.431l0.449-0.449l0.431,0.431l1.026-1.02l0.446,0.449L11.48,13.146z
			 M11.48,13.146"/>
		<path style="clip-path:url(#SVGID_2_);fill:#CDCCCC;" d="M11.178,9.481c-0.165-0.217-0.397-0.391-0.724-0.474
			C9.006,8.638,7.827,7.81,7.827,7.81l-0.919,2.905l-0.174,0.547l-0.003-0.006l-0.15,0.464l-0.483-1.374
			C7.29,8.684,5.857,8.702,5.778,8.702c-0.079-0.003-1.512-0.018-0.321,1.643L4.971,11.72l-0.15-0.464l-0.003,0.006l-0.174-0.547
			L3.725,7.81c0,0-1.176,0.828-2.627,1.197c-1.081,0.275-1.133,1.521-1.087,2.138c0.006,0,0.067,0.837,0.131,1.204
			c0,0,2.107,1.371,5.638,1.371c0.944,0,1.784-0.098,2.511-0.241c-0.076-0.269-0.116-0.553-0.116-0.846
			C8.175,10.944,9.51,9.56,11.178,9.481L11.178,9.481z M11.178,9.481"/>
	</g>
</g>
</svg>
