<?xml version="1.0" encoding="iso-8859-1"?>
<!-- Generator: Adobe Illustrator 20.1.0, SVG Export Plug-In . SVG Version: 6.00 Build 0)  -->
<svg version="1.1" id="&#x421;&#x43B;&#x43E;&#x439;_1"
	 xmlns="http://www.w3.org/2000/svg" xmlns:xlink="http://www.w3.org/1999/xlink" x="0px" y="0px" viewBox="0 0 15 15"
	 style="enable-background:new 0 0 15 15;" xml:space="preserve">
<g>
	<path style="fill:#F0F0F0;" d="M15,7.5c0,4.142-3.358,7.5-7.5,7.5C3.358,15,0,11.642,0,7.5C0,3.358,3.358,0,7.5,0
		C11.642,0,15,3.358,15,7.5L15,7.5z M15,7.5"/>
	<path style="fill:#0052B4;" d="M14.533,10.109C14.835,9.296,15,8.417,15,7.5s-0.165-1.796-0.467-2.609H0.466
		C0.165,5.704,0,6.583,0,7.5s0.165,1.796,0.466,2.609L7.5,10.761L14.533,10.109z M14.533,10.109"/>
	<path style="fill:#D80027;" d="M7.5,15c3.225,0,5.974-2.035,7.033-4.891H0.466C1.526,12.965,4.275,15,7.5,15L7.5,15z M7.5,15"/>
</g>
</svg>
