<?xml version="1.0" encoding="utf-8"?>
<!-- Generator: Adobe Illustrator 20.1.0, SVG Export Plug-In . SVG Version: 6.00 Build 0)  -->
<svg version="1.1" id="Слой_1" xmlns="http://www.w3.org/2000/svg" xmlns:xlink="http://www.w3.org/1999/xlink" x="0px" y="0px"
	 viewBox="0 0 15 15" style="enable-background:new 0 0 15 15;" xml:space="preserve">
<style type="text/css">
	.st0{fill:#F0F0F0;}
	.st1{fill:#0052B4;}
	.st2{fill:#D6BC00;}
	.st3{fill:#0075D6;}
</style>
<g>
	<path class="st0" d="M15,7.5c0,4.1-3.4,7.5-7.5,7.5S0,11.6,0,7.5S3.4,0,7.5,0S15,3.4,15,7.5L15,7.5z"/>
	<path class="st1" d="M14.5,10.1C14.8,9.3,15,8.4,15,7.5s-0.2-1.8-0.5-2.6H0.5C0.2,5.7,0,6.6,0,7.5s0.2,1.8,0.5,2.6l7,0.7L14.5,10.1
		z"/>
	<path class="st2" d="M7.5,15c4.2-0.1,7.5-3.3,7.5-7.5H0C0.2,11.9,3.4,15,7.5,15L7.5,15z"/>
	<path class="st3" d="M7.5,0C3.3,0.1,0,3.3,0,7.5h15C14.8,3.1,11.6,0,7.5,0L7.5,0z"/>
</g>
</svg>
