<?xml version="1.0" encoding="iso-8859-1"?>
<!-- Generator: Adobe Illustrator 20.1.0, SVG Export Plug-In . SVG Version: 6.00 Build 0)  -->
<svg version="1.1" id="&#x421;&#x43B;&#x43E;&#x439;_1"
	 xmlns="http://www.w3.org/2000/svg" xmlns:xlink="http://www.w3.org/1999/xlink" x="0px" y="0px" viewBox="0 0 30 30"
	 style="enable-background:new 0 0 30 30;" xml:space="preserve">
<g>
	<path style="fill:#2CB742;" d="M0,30l2.581-7.738c-1.311-2.203-2.063-4.771-2.063-7.519C0.518,6.6,7.118,0,15.261,0
		C23.4,0,30,6.6,30,14.743c0,8.14-6.6,14.743-14.739,14.743c-2.478,0-4.812-0.614-6.86-1.695L0,30z M0,30"/>
	<path style="fill:#FFFFFF;" d="M24.664,19.648c-0.68-1.286-3.19-2.756-3.19-2.756c-0.568-0.326-1.253-0.361-1.576,0.217
		c0,0-0.815,0.978-1.023,1.119c-0.949,0.642-1.826,0.617-2.712-0.27l-4.119-4.119c-0.884-0.884-0.909-1.763-0.268-2.71
		c0.142-0.207,1.119-1.023,1.119-1.023c0.576-0.326,0.541-1.011,0.217-1.579c0,0-1.472-2.51-2.758-3.19
		c-0.548-0.29-1.22-0.189-1.657,0.25L7.787,6.496c-2.884,2.884-1.465,6.14,1.419,9.024l5.274,5.274
		c2.884,2.884,6.143,4.306,9.026,1.422l0.91-0.909C24.853,20.867,24.954,20.195,24.664,19.648L24.664,19.648z M24.664,19.648"/>
</g>
</svg>
