<?xml version="1.0" encoding="iso-8859-1"?>
<!-- Generator: Adobe Illustrator 20.1.0, SVG Export Plug-In . SVG Version: 6.00 Build 0)  -->
<svg version="1.1" id="&#x421;&#x43B;&#x43E;&#x439;_1"
	 xmlns="http://www.w3.org/2000/svg" xmlns:xlink="http://www.w3.org/1999/xlink" x="0px" y="0px" viewBox="0 0 15 15"
	 style="enable-background:new 0 0 15 15;" xml:space="preserve">
<path id="call_9_" style="fill:#CDCCCC;stroke:#CDCCCC;stroke-miterlimit:10;" d="M14.248,12.629
	c-0.433,1.313-2.125,1.968-3.335,1.859c-1.652-0.149-3.45-1.025-4.814-1.99C4.093,11.079,2.215,8.885,1.12,6.556
	C0.346,4.91,0.173,2.887,1.324,1.387c0.426-0.555,0.885-0.851,1.577-0.884C3.86,0.456,3.995,1.004,4.324,1.86
	C4.569,2.499,4.897,3.151,5.08,3.814c0.342,1.237-0.855,1.288-1.006,2.3C3.979,6.75,4.753,7.605,5.102,8.06
	c0.684,0.89,1.506,1.658,2.434,2.243c0.531,0.335,1.389,0.938,1.998,0.605c0.936-0.513,0.848-2.093,2.159-1.559
	c0.679,0.277,1.335,0.675,1.984,1.024C14.677,10.912,14.63,11.47,14.248,12.629C13.963,13.495,14.534,11.763,14.248,12.629z"/>
</svg>
