<?xml version="1.0" encoding="iso-8859-1"?>
<!-- Generator: Adobe Illustrator 20.1.0, SVG Export Plug-In . SVG Version: 6.00 Build 0)  -->
<svg version="1.1" id="&#x421;&#x43B;&#x43E;&#x439;_1"
	 xmlns="http://www.w3.org/2000/svg" xmlns:xlink="http://www.w3.org/1999/xlink" x="0px" y="0px" viewBox="0 0 15 14.785"
	 style="enable-background:new 0 0 15 14.785;" xml:space="preserve">
<g>
	<path style="fill:#CDCCCC;" d="M14.287,8.358c0.041-0.305,0.065-0.614,0.065-0.93c0-3.784-3.084-6.852-6.888-6.852
		c-0.378,0-0.749,0.031-1.109,0.09C5.708,0.246,4.938,0,4.11,0C1.839,0,0,1.84,0,4.111c0,0.826,0.243,1.594,0.662,2.238
		C0.605,6.7,0.577,7.061,0.577,7.428c0,3.784,3.082,6.852,6.887,6.852c0.429,0,0.847-0.042,1.254-0.115
		c0.631,0.392,1.375,0.62,2.172,0.62c2.27,0,4.11-1.84,4.11-4.111C15,9.816,14.738,9.018,14.287,8.358L14.287,8.358z M8.108,12.478
		c-2.189,0.114-3.213-0.37-4.151-1.251C2.909,10.244,3.33,9.122,4.183,9.065c0.853-0.057,1.365,0.967,1.821,1.252
		c0.455,0.284,2.185,0.93,3.099-0.115c0.995-1.138-0.662-1.726-1.877-1.904C5.492,8.042,3.302,7.103,3.473,5.254
		c0.17-1.848,1.57-2.795,3.042-2.929c1.877-0.171,3.099,0.284,4.066,1.109c1.118,0.953,0.513,2.018-0.199,2.104
		c-0.709,0.085-1.506-1.568-3.07-1.592C5.7,3.921,4.61,5.624,6.6,6.108c1.991,0.484,4.124,0.682,4.891,2.502
		C12.26,10.431,10.298,12.364,8.108,12.478L8.108,12.478z M8.108,12.478"/>
</g>
</svg>
