<?xml version="1.0" encoding="iso-8859-1"?>
<!-- Generator: Adobe Illustrator 20.1.0, SVG Export Plug-In . SVG Version: 6.00 Build 0)  -->
<svg version="1.1" id="&#x421;&#x43B;&#x43E;&#x439;_1"
	 xmlns="http://www.w3.org/2000/svg" xmlns:xlink="http://www.w3.org/1999/xlink" x="0px" y="0px" viewBox="0 0 43.644 45"
	 style="enable-background:new 0 0 43.644 45;" xml:space="preserve">
<g>
	<g>
		<defs>
			<rect id="SVGID_1_" width="43.636" height="45"/>
		</defs>
		<clipPath id="SVGID_2_">
			<use xlink:href="#SVGID_1_"  style="overflow:visible;"/>
		</clipPath>
		<path style="clip-path:url(#SVGID_2_);fill:#1D8ECE;" d="M40.717,12.271C34.692,1.836,21.349-1.744,10.914,4.286
			C0.48,10.305-3.1,23.654,2.929,34.09c6.019,10.435,19.369,14.009,29.804,7.984C43.167,36.049,46.741,22.706,40.717,12.271
			L40.717,12.271z M30.548,38.292c-8.347,4.82-19.021,1.96-23.842-6.387c-4.82-8.347-1.961-19.021,6.387-23.842
			c8.347-4.82,19.027-1.961,23.842,6.386C41.756,22.797,38.895,33.472,30.548,38.292L30.548,38.292z M29.675,22.29l-11.426-6.663
			c-1.039-0.608-1.88-0.123-1.875,1.081l0.059,13.226c0.005,1.21,0.858,1.699,1.901,1.092L29.67,24.48
			C30.713,23.879,30.719,22.898,29.675,22.29L29.675,22.29z M29.675,22.29"/>
	</g>
</g>
</svg>
