<?xml version="1.0" encoding="iso-8859-1"?>
<!-- Generator: Adobe Illustrator 20.1.0, SVG Export Plug-In . SVG Version: 6.00 Build 0)  -->
<svg version="1.1" id="&#x421;&#x43B;&#x43E;&#x439;_1"
	 xmlns="http://www.w3.org/2000/svg" xmlns:xlink="http://www.w3.org/1999/xlink" x="0px" y="0px" viewBox="0 0 29.993 30"
	 style="enable-background:new 0 0 29.993 30;" xml:space="preserve">
<g>
	<path style="fill:#00AFF0;" d="M29.132,18.185c0.216-0.977,0.33-1.988,0.33-3.028c0-7.79-6.404-14.107-14.306-14.107
		c-0.833,0-1.651,0.071-2.445,0.206C11.432,0.461,9.919,0,8.298,0C3.714,0,0,3.663,0,8.183c0,1.509,0.417,2.923,1.14,4.139
		c-0.19,0.915-0.29,1.864-0.29,2.836c0,7.793,6.404,13.875,14.305,13.875c0.895,0,1.771-0.081,2.619-0.236
		C18.943,29.414,20.278,30,21.697,30c4.583,0,8.296-3.662,8.296-8.182C29.993,20.514,29.683,19.28,29.132,18.185L29.132,18.185z
		 M29.132,18.185"/>
	<path style="fill:#FFFFFF;" d="M21.681,20.915c-0.552,0.785-1.36,1.402-2.424,1.845c-1.064,0.447-2.324,0.669-3.781,0.669
		c-1.748,0-3.19-0.304-4.327-0.912c-0.804-0.437-1.46-1.022-1.964-1.751c-0.503-0.729-0.755-1.44-0.755-2.131
		c0-0.399,0.151-0.743,0.453-1.027c0.302-0.288,0.687-0.429,1.153-0.429c0.379,0,0.7,0.11,0.961,0.334
		c0.262,0.222,0.486,0.551,0.67,0.989c0.226,0.52,0.469,0.954,0.732,1.302c0.26,0.347,0.63,0.636,1.104,0.862
		c0.476,0.224,1.102,0.338,1.874,0.338c1.063,0,1.927-0.227,2.593-0.683c0.664-0.455,0.997-1.026,0.997-1.707
		c0-0.54-0.18-0.982-0.538-1.316c-0.359-0.337-0.822-0.595-1.39-0.772c-0.568-0.179-1.327-0.368-2.279-0.568
		c-1.272-0.273-2.338-0.595-3.195-0.961c-0.858-0.368-1.54-0.868-2.042-1.501c-0.505-0.635-0.756-1.423-0.756-2.363
		c0-0.898,0.265-1.694,0.797-2.391c0.532-0.697,1.299-1.232,2.308-1.607c1.006-0.375,2.191-0.562,3.552-0.562
		c1.087,0,2.028,0.125,2.822,0.371c0.794,0.249,1.451,0.58,1.974,0.991c0.524,0.412,0.908,0.843,1.148,1.296
		c0.242,0.45,0.363,0.894,0.363,1.322c0,0.393-0.15,0.749-0.452,1.063c-0.302,0.315-0.679,0.473-1.13,0.473
		c-0.411,0-0.723-0.096-0.937-0.284c-0.214-0.189-0.445-0.499-0.694-0.929c-0.323-0.615-0.708-1.095-1.16-1.439
		c-0.452-0.345-1.175-0.517-2.175-0.517c-0.925,0-1.673,0.186-2.241,0.562c-0.568,0.373-0.853,0.824-0.853,1.35
		c0,0.324,0.099,0.607,0.291,0.845c0.192,0.239,0.459,0.44,0.798,0.61c0.337,0.17,0.68,0.304,1.026,0.402
		c0.346,0.097,0.919,0.236,1.717,0.422c0.997,0.215,1.902,0.453,2.712,0.711c0.809,0.259,1.499,0.576,2.067,0.944
		c0.567,0.371,1.011,0.842,1.329,1.41c0.318,0.566,0.478,1.261,0.478,2.084C22.509,19.244,22.231,20.13,21.681,20.915L21.681,20.915
		z M21.681,20.915"/>
</g>
</svg>
