<?xml version="1.0" encoding="iso-8859-1"?>
<!-- Generator: Adobe Illustrator 20.1.0, SVG Export Plug-In . SVG Version: 6.00 Build 0)  -->
<svg version="1.1" id="&#x421;&#x43B;&#x43E;&#x439;_1"
	 xmlns="http://www.w3.org/2000/svg" xmlns:xlink="http://www.w3.org/1999/xlink" x="0px" y="0px" viewBox="0 0 30 30"
	 style="enable-background:new 0 0 30 30;" xml:space="preserve">
<g>
	<path style="fill:#6C27B3;" d="M30,15c0,8.284-6.716,15-15,15C6.716,30,0,23.284,0,15C0,6.716,6.716,0,15,0
		C23.284,0,30,6.716,30,15L30,15z M30,15"/>
	<path style="fill:#FFFFFF;" d="M18.47,6.414H11.53c-2.821,0-5.116,2.295-5.116,5.116v6.941c0,2.821,2.295,5.116,5.116,5.116h6.941
		c2.82,0,5.115-2.295,5.115-5.116V11.53C23.586,8.709,21.291,6.414,18.47,6.414L18.47,6.414z M21.858,18.47
		c0,1.871-1.517,3.388-3.388,3.388H11.53c-1.871,0-3.388-1.517-3.388-3.388V11.53c0-1.871,1.517-3.388,3.388-3.388h6.941
		c1.871,0,3.388,1.517,3.388,3.388V18.47z M21.858,18.47"/>
	<path style="fill:#FFFFFF;" d="M15,10.559c-2.449,0-4.441,1.992-4.441,4.441c0,2.449,1.992,4.441,4.441,4.441
		c2.449,0,4.441-1.992,4.441-4.441C19.441,12.551,17.449,10.559,15,10.559L15,10.559z M15,17.714c-1.499,0-2.714-1.215-2.714-2.714
		s1.215-2.714,2.714-2.714c1.499,0,2.714,1.215,2.714,2.714C17.714,16.499,16.499,17.714,15,17.714L15,17.714z M15,17.714"/>
	<path style="fill:#FFFFFF;" d="M20.514,10.592c0,0.588-0.476,1.064-1.064,1.064c-0.588,0-1.064-0.476-1.064-1.064
		c0-0.588,0.476-1.064,1.064-1.064C20.037,9.528,20.514,10.004,20.514,10.592L20.514,10.592z M20.514,10.592"/>
</g>
</svg>
