<?xml version="1.0" encoding="iso-8859-1"?>
<!-- Generator: Adobe Illustrator 20.1.0, SVG Export Plug-In . SVG Version: 6.00 Build 0)  -->
<svg version="1.1" id="&#x421;&#x43B;&#x43E;&#x439;_1"
	 xmlns="http://www.w3.org/2000/svg" xmlns:xlink="http://www.w3.org/1999/xlink" x="0px" y="0px" viewBox="0 0 30 30"
	 style="enable-background:new 0 0 30 30;" xml:space="preserve">
<g>
	<path style="fill:#6F3FAA;" d="M30,15c0,8.284-6.716,15-15,15C6.716,30,0,23.284,0,15C0,6.716,6.716,0,15,0
		C23.284,0,30,6.716,30,15L30,15z M30,15"/>
	<path style="fill:#FFFFFF;" d="M22.935,10.542l-0.005-0.02c-0.401-1.62-2.208-3.359-3.867-3.72l-0.019-0.004
		c-2.684-0.512-5.405-0.512-8.089,0l-0.019,0.004c-1.659,0.362-3.466,2.1-3.867,3.72l-0.005,0.02c-0.496,2.263-0.496,4.558,0,6.82
		l0.005,0.02c0.384,1.551,2.057,3.21,3.654,3.666v1.808c0,0.655,0.798,0.976,1.251,0.504l1.833-1.905
		c0.398,0.022,0.795,0.035,1.193,0.035c1.351,0,2.703-0.128,4.044-0.384l0.019-0.004c1.659-0.362,3.466-2.101,3.867-3.721
		l0.005-0.02C23.431,15.1,23.431,12.805,22.935,10.542L22.935,10.542z M21.485,17.034c-0.267,1.057-1.639,2.371-2.729,2.614
		c-1.427,0.271-2.866,0.387-4.302,0.348c-0.029-0.001-0.056,0.01-0.076,0.031c-0.204,0.209-1.338,1.374-1.338,1.374l-1.423,1.461
		c-0.104,0.108-0.287,0.035-0.287-0.115V19.75c0-0.049-0.036-0.092-0.084-0.101h-0.001c-1.09-0.243-2.461-1.557-2.729-2.614
		c-0.446-2.045-0.446-4.119,0-6.164c0.268-1.057,1.639-2.371,2.729-2.614c2.492-0.474,5.019-0.474,7.511,0
		c1.091,0.243,2.462,1.557,2.729,2.614C21.931,12.916,21.931,14.989,21.485,17.034L21.485,17.034z M21.485,17.034"/>
	<path style="fill:#FFFFFF;" d="M17.371,18.417c-0.168-0.051-0.327-0.085-0.476-0.146c-1.537-0.638-2.951-1.46-4.072-2.721
		c-0.637-0.717-1.136-1.527-1.558-2.383c-0.2-0.406-0.368-0.829-0.54-1.248c-0.157-0.383,0.074-0.778,0.317-1.066
		c0.228-0.271,0.521-0.478,0.839-0.63c0.248-0.119,0.492-0.05,0.673,0.16c0.391,0.454,0.751,0.932,1.042,1.458
		c0.179,0.324,0.13,0.72-0.195,0.94c-0.079,0.054-0.15,0.116-0.224,0.177c-0.064,0.053-0.125,0.107-0.169,0.179
		c-0.081,0.131-0.085,0.286-0.033,0.429c0.4,1.099,1.074,1.954,2.181,2.414c0.177,0.074,0.355,0.159,0.559,0.136
		c0.342-0.04,0.452-0.415,0.692-0.611c0.234-0.191,0.533-0.194,0.785-0.034c0.252,0.16,0.496,0.331,0.739,0.504
		c0.239,0.17,0.476,0.336,0.696,0.53c0.211,0.186,0.284,0.431,0.165,0.683c-0.218,0.463-0.535,0.848-0.993,1.094
		C17.671,18.35,17.517,18.373,17.371,18.417C17.204,18.367,17.517,18.373,17.371,18.417L17.371,18.417z M17.371,18.417"/>
	<path style="fill:#FFFFFF;" d="M15.004,9.693c2.01,0.056,3.662,1.39,4.015,3.378c0.06,0.339,0.082,0.685,0.109,1.029
		c0.011,0.145-0.071,0.282-0.227,0.284c-0.161,0.002-0.234-0.133-0.244-0.277c-0.021-0.286-0.035-0.573-0.074-0.857
		c-0.208-1.498-1.402-2.737-2.893-3.002c-0.224-0.04-0.454-0.05-0.681-0.074c-0.144-0.015-0.332-0.024-0.363-0.202
		c-0.027-0.15,0.1-0.269,0.242-0.277C14.926,9.691,14.965,9.693,15.004,9.693C17.014,9.749,14.965,9.693,15.004,9.693L15.004,9.693z
		 M15.004,9.693"/>
	<path style="fill:#FFFFFF;" d="M18.059,13.653c-0.003,0.025-0.005,0.084-0.02,0.14c-0.054,0.202-0.36,0.227-0.43,0.023
		c-0.021-0.06-0.024-0.129-0.024-0.194c-0.001-0.426-0.093-0.851-0.308-1.222c-0.221-0.381-0.558-0.701-0.954-0.895
		c-0.239-0.117-0.498-0.19-0.76-0.233c-0.114-0.019-0.23-0.03-0.345-0.047c-0.14-0.019-0.214-0.108-0.207-0.245
		c0.006-0.129,0.1-0.222,0.241-0.214c0.461,0.026,0.907,0.126,1.317,0.343c0.834,0.442,1.311,1.139,1.45,2.07
		c0.006,0.042,0.016,0.084,0.019,0.126C18.046,13.411,18.051,13.515,18.059,13.653C18.056,13.679,18.051,13.515,18.059,13.653
		L18.059,13.653z M18.059,13.653"/>
	<path style="fill:#FFFFFF;" d="M16.809,13.605c-0.168,0.003-0.258-0.09-0.276-0.244c-0.012-0.107-0.021-0.216-0.047-0.321
		c-0.051-0.206-0.16-0.397-0.333-0.523c-0.082-0.06-0.175-0.103-0.272-0.131c-0.123-0.036-0.251-0.026-0.374-0.056
		c-0.134-0.033-0.207-0.141-0.187-0.266c0.019-0.114,0.13-0.203,0.255-0.194c0.779,0.056,1.336,0.459,1.416,1.377
		c0.006,0.065,0.012,0.133-0.002,0.195C16.964,13.546,16.885,13.6,16.809,13.605C16.64,13.608,16.885,13.6,16.809,13.605
		L16.809,13.605z M16.809,13.605"/>
	<path style="fill:#D1D1D1;" d="M22.935,10.542"/>
	<path style="fill:#FFFFFF;" d="M17.371,18.417C17.517,18.373,17.204,18.367,17.371,18.417L17.371,18.417z M17.371,18.417"/>
	<path style="fill:#FFFFFF;" d="M15.004,9.693c0.001,0,0.003,0,0.005,0C15.121,9.697,16.935,9.747,15.004,9.693L15.004,9.693z
		 M15.004,9.693"/>
	<path style="fill:#D1D1D1;" d="M17.888,10.889"/>
	<path style="fill:#FFFFFF;" d="M18.059,13.653C18.051,13.515,18.056,13.679,18.059,13.653L18.059,13.653z M18.059,13.653"/>
	<path style="fill:#FFFFFF;" d="M16.809,13.605c0.003,0,0.005-0.001,0.008-0.002c-0.007,0-0.018,0-0.029,0.001
		C16.795,13.604,16.801,13.605,16.809,13.605L16.809,13.605z M16.809,13.605"/>
	<path style="fill:#FFFFFF;" d="M16.809,13.605c-0.007,0-0.014-0.001-0.021-0.001C16.751,13.604,16.713,13.606,16.809,13.605
		L16.809,13.605z M16.809,13.605"/>
	<path style="fill:#FFFFFF;" d="M16.816,13.603c-0.003,0-0.005,0.001-0.008,0.002C16.828,13.603,16.827,13.603,16.816,13.603
		L16.816,13.603z M16.816,13.603"/>
</g>
</svg>
