<?xml version="1.0" encoding="iso-8859-1"?>
<!-- Generator: Adobe Illustrator 20.1.0, SVG Export Plug-In . SVG Version: 6.00 Build 0)  -->
<svg version="1.1" id="&#x421;&#x43B;&#x43E;&#x439;_1"
	 xmlns="http://www.w3.org/2000/svg" xmlns:xlink="http://www.w3.org/1999/xlink" x="0px" y="0px" viewBox="0 0 15 11.184"
	 style="enable-background:new 0 0 15 11.184;" xml:space="preserve">
<g>
	<g>
		<path style="fill:#CDCCCC;" d="M13.294,4.812L7.716,6.938L2.138,4.842L1.821,7.753c-0.015,0.12,0.027,0.24,0.113,0.324
			C2.02,8.161,2.141,8.2,2.26,8.183c0.305-0.044,0.617-0.067,0.928-0.067c1.853,0,3.512,0.786,4.127,1.954
			c0.066,0.128,0.199,0.207,0.342,0.207h0.118c0.143,0,0.275-0.079,0.342-0.206c0.615-1.169,2.273-1.955,4.126-1.955
			c0.312,0,0.624,0.023,0.929,0.067c0.018,0.003,0.057,0.004,0.059,0.005c0.214,0,0.401-0.161,0.386-0.386
			C13.616,7.768,13.294,4.812,13.294,4.812L13.294,4.812z M13.294,4.812"/>
		<path style="fill:#CDCCCC;" d="M14.749,2.621L7.853,0.025c-0.088-0.033-0.185-0.033-0.272,0L0.665,2.628
			C0.514,2.684,0.415,2.828,0.415,2.989v4.699h0.867V3.569L7.58,5.94c0.088,0.033,0.184,0.033,0.272,0l6.897-2.596
			C14.9,3.287,15,3.143,15,2.982C15,2.822,14.9,2.677,14.749,2.621L14.749,2.621z M14.749,2.621"/>
		<path style="fill:#CDCCCC;" d="M0.002,10.757c-0.011,0.109,0.023,0.217,0.097,0.299c0.073,0.082,0.178,0.128,0.287,0.128h0.924
			c0.11,0,0.214-0.046,0.287-0.128c0.073-0.082,0.109-0.19,0.097-0.299L1.443,8.361H0.254L0.002,10.757z M0.002,10.757"/>
	</g>
</g>
</svg>
