<?xml version="1.0" encoding="iso-8859-1"?>
<!-- Generator: Adobe Illustrator 20.1.0, SVG Export Plug-In . SVG Version: 6.00 Build 0)  -->
<svg version="1.1" id="&#x421;&#x43B;&#x43E;&#x439;_1"
	 xmlns="http://www.w3.org/2000/svg" xmlns:xlink="http://www.w3.org/1999/xlink" x="0px" y="0px" viewBox="0 0 14.985 15"
	 style="enable-background:new 0 0 14.985 15;" xml:space="preserve">
<g>
	<g>
		<defs>
			<rect id="SVGID_1_" x="0" y="0" width="14.985" height="15"/>
		</defs>
		<clipPath id="SVGID_2_">
			<use xlink:href="#SVGID_1_"  style="overflow:visible;"/>
		</clipPath>
		<path style="clip-path:url(#SVGID_2_);fill-rule:evenodd;clip-rule:evenodd;fill:#CDCCCC;" d="M14.886,6.638
			c-0.024-0.21-0.268-0.368-0.48-0.368c-0.684,0-1.291-0.402-1.546-1.023c-0.26-0.636-0.092-1.379,0.418-1.846
			c0.161-0.147,0.18-0.393,0.046-0.563c-0.35-0.445-0.748-0.846-1.183-1.195c-0.17-0.136-0.42-0.117-0.568,0.046
			c-0.445,0.493-1.244,0.676-1.862,0.418c-0.643-0.27-1.048-0.922-1.008-1.621c0.013-0.22-0.148-0.411-0.367-0.436
			c-0.558-0.065-1.12-0.066-1.68-0.004c-0.216,0.024-0.377,0.21-0.369,0.427C6.31,1.165,5.9,1.805,5.264,2.066
			c-0.61,0.249-1.404,0.068-1.848-0.421C3.268,1.484,3.023,1.464,2.852,1.597C2.404,1.949,1.997,2.351,1.644,2.792
			c-0.138,0.171-0.117,0.42,0.045,0.567c0.52,0.471,0.687,1.219,0.417,1.863C1.848,5.836,1.211,6.231,0.481,6.231
			C0.245,6.224,0.076,6.383,0.05,6.598c-0.066,0.561-0.066,1.132-0.003,1.698c0.024,0.211,0.276,0.367,0.49,0.367
			c0.65-0.017,1.274,0.386,1.536,1.023c0.261,0.636,0.093,1.378-0.418,1.846c-0.16,0.147-0.18,0.392-0.045,0.562
			c0.347,0.442,0.745,0.844,1.181,1.195c0.171,0.138,0.42,0.119,0.568-0.045c0.447-0.494,1.246-0.677,1.861-0.419
			c0.645,0.27,1.05,0.921,1.01,1.62c-0.013,0.22,0.148,0.411,0.366,0.436c0.285,0.033,0.572,0.05,0.86,0.05
			c0.273,0,0.546-0.015,0.82-0.045c0.216-0.024,0.377-0.211,0.369-0.428c-0.025-0.692,0.386-1.332,1.022-1.592
			c0.615-0.251,1.405-0.067,1.849,0.421c0.148,0.161,0.392,0.18,0.563,0.047c0.447-0.35,0.853-0.752,1.208-1.194
			c0.138-0.171,0.118-0.42-0.045-0.568c-0.52-0.47-0.688-1.219-0.418-1.863c0.254-0.605,0.867-1.012,1.527-1.012l0.092,0.002
			c0.214,0.017,0.411-0.148,0.437-0.366C14.949,7.774,14.95,7.203,14.886,6.638L14.886,6.638z M7.478,9.973
			c-1.373,0-2.49-1.117-2.49-2.491c0-1.373,1.117-2.491,2.49-2.491c1.374,0,2.491,1.117,2.491,2.491
			C9.969,8.856,8.852,9.973,7.478,9.973L7.478,9.973z M7.478,9.973"/>
	</g>
</g>
</svg>
