<?xml version="1.0" encoding="iso-8859-1"?>
<!-- Generator: Adobe Illustrator 20.1.0, SVG Export Plug-In . SVG Version: 6.00 Build 0)  -->
<svg version="1.1" id="&#x421;&#x43B;&#x43E;&#x439;_1"
	 xmlns="http://www.w3.org/2000/svg" xmlns:xlink="http://www.w3.org/1999/xlink" x="0px" y="0px" viewBox="0 0 15 11.785"
	 style="enable-background:new 0 0 15 11.785;" xml:space="preserve">
<g>
	<path style="fill:#CCCCCC;" d="M13.66,11.785c0.337,0,0.629-0.111,0.877-0.331l-4.249-4.25c-0.103,0.073-0.201,0.144-0.295,0.211
		C9.676,7.65,9.418,7.834,9.22,7.965C9.022,8.096,8.758,8.229,8.429,8.366C8.1,8.503,7.793,8.571,7.508,8.571H7.492
		c-0.285,0-0.592-0.068-0.921-0.205c-0.33-0.137-0.593-0.27-0.791-0.401C5.582,7.834,5.324,7.65,5.006,7.416
		C4.917,7.351,4.819,7.279,4.712,7.204l-4.25,4.25c0.248,0.22,0.54,0.331,0.878,0.331H13.66z M13.66,11.785"/>
	<path style="fill:#CCCCCC;" d="M0.846,4.529C0.527,4.316,0.246,4.074,0,3.8v6.466L3.746,6.52C2.996,5.997,2.03,5.334,0.846,4.529
		L0.846,4.529z M0.846,4.529"/>
	<path style="fill:#CCCCCC;" d="M14.163,4.529c-1.14,0.771-2.109,1.436-2.907,1.993L15,10.266V3.8
		C14.76,4.068,14.481,4.311,14.163,4.529L14.163,4.529z M14.163,4.529"/>
	<path style="fill:#CCCCCC;" d="M13.66,0H1.34C0.91,0,0.579,0.145,0.347,0.435C0.116,0.725,0,1.088,0,1.523
		c0,0.352,0.154,0.733,0.461,1.143c0.307,0.41,0.633,0.732,0.979,0.967c0.19,0.134,0.762,0.531,1.716,1.193
		c0.515,0.356,0.963,0.668,1.349,0.937c0.328,0.229,0.611,0.426,0.845,0.591c0.027,0.019,0.068,0.049,0.124,0.089
		C5.534,6.485,5.61,6.54,5.705,6.609C5.886,6.74,6.037,6.846,6.156,6.926c0.12,0.081,0.265,0.172,0.435,0.272
		c0.17,0.1,0.331,0.176,0.482,0.226C7.224,7.475,7.363,7.5,7.492,7.5h0.016c0.129,0,0.269-0.025,0.419-0.076
		c0.15-0.05,0.311-0.125,0.481-0.226c0.17-0.101,0.315-0.191,0.435-0.272c0.12-0.081,0.271-0.186,0.452-0.317
		c0.094-0.068,0.17-0.124,0.23-0.167c0.056-0.04,0.098-0.07,0.125-0.089c0.181-0.127,0.465-0.324,0.847-0.589
		c0.693-0.482,1.715-1.191,3.07-2.131c0.408-0.285,0.748-0.628,1.021-1.029C14.863,2.201,15,1.78,15,1.339
		c0-0.369-0.133-0.684-0.398-0.946C14.338,0.131,14.023,0,13.66,0L13.66,0z M13.66,0"/>
</g>
</svg>
