<?xml version="1.0" encoding="iso-8859-1"?>
<!-- Generator: Adobe Illustrator 20.1.0, SVG Export Plug-In . SVG Version: 6.00 Build 0)  -->
<svg version="1.1" id="&#x421;&#x43B;&#x43E;&#x439;_1"
	 xmlns="http://www.w3.org/2000/svg" xmlns:xlink="http://www.w3.org/1999/xlink" x="0px" y="0px" viewBox="0 0 14.201 15.004"
	 style="enable-background:new 0 0 14.201 15.004;" xml:space="preserve">
<g>
	<g>
		<defs>
			<rect id="SVGID_1_" y="0.004" width="14.201" height="15"/>
		</defs>
		<clipPath id="SVGID_2_">
			<use xlink:href="#SVGID_1_"  style="overflow:visible;"/>
		</clipPath>
		<path style="clip-path:url(#SVGID_2_);fill:#CDCCCC;" d="M13.73,13.504v-6.78c0-0.354-0.287-0.641-0.641-0.641h-3.042V4.238
			c0-0.174-0.094-0.335-0.246-0.42L7.33,2.441c-0.014-0.008-0.028-0.014-0.042-0.02V1.635h1.33c0.106,0,0.192-0.086,0.192-0.192
			V0.471c0-0.106-0.086-0.192-0.192-0.192h-1.33V0.192C7.288,0.086,7.202,0,7.096,0C6.99,0,6.903,0.086,6.903,0.192v2.228
			c-0.014,0.006-0.028,0.013-0.042,0.02l-2.47,1.378c-0.152,0.085-0.247,0.245-0.247,0.42v1.845H1.102
			c-0.354,0-0.641,0.287-0.641,0.641v6.78C0.189,13.627,0,13.901,0,14.219c0,0.434,0.351,0.785,0.785,0.785h12.622
			c0.433,0,0.785-0.351,0.785-0.785C14.191,13.901,14.002,13.627,13.73,13.504L13.73,13.504z M11.253,8.316
			c0-0.206,0.167-0.373,0.373-0.373h0.698c0.206,0,0.373,0.167,0.373,0.373v0.698c0,0.206-0.167,0.373-0.373,0.373h-0.698
			c-0.206,0-0.373-0.167-0.373-0.373V8.316z M11.253,10.559c0-0.206,0.167-0.373,0.373-0.373h0.698c0.206,0,0.373,0.167,0.373,0.373
			v0.698c0,0.206-0.167,0.373-0.373,0.373h-0.698c-0.206,0-0.373-0.167-0.373-0.373V10.559z M9.011,8.316
			c0-0.206,0.167-0.373,0.373-0.373h0.698c0.206,0,0.373,0.167,0.373,0.373v0.698c0,0.206-0.167,0.373-0.373,0.373H9.384
			c-0.206,0-0.373-0.167-0.373-0.373V8.316z M9.011,10.559c0-0.206,0.167-0.373,0.373-0.373h0.698c0.206,0,0.373,0.167,0.373,0.373
			v0.698c0,0.206-0.167,0.373-0.373,0.373H9.384c-0.206,0-0.373-0.167-0.373-0.373V10.559z M7.096,4.24
			c0.584,0,1.057,0.473,1.057,1.057c0,0.584-0.473,1.057-1.057,1.057c-0.584,0-1.057-0.473-1.057-1.057
			C6.038,4.713,6.512,4.24,7.096,4.24L7.096,4.24z M6.037,10.309c0-0.206,0.167-0.373,0.373-0.373h1.37
			c0.206,0,0.373,0.167,0.373,0.373v2.94c0,0.067-0.018,0.13-0.049,0.185H6.086c-0.031-0.055-0.049-0.118-0.049-0.185L6.037,10.309
			L6.037,10.309z M3.736,8.316c0-0.206,0.167-0.373,0.373-0.373h0.698c0.206,0,0.373,0.167,0.373,0.373v0.698
			c0,0.206-0.167,0.373-0.373,0.373H4.109c-0.206,0-0.373-0.167-0.373-0.373V8.316z M3.736,10.559c0-0.206,0.167-0.373,0.373-0.373
			h0.698c0.206,0,0.373,0.167,0.373,0.373v0.698c0,0.206-0.167,0.373-0.373,0.373H4.109c-0.206,0-0.373-0.167-0.373-0.373V10.559z
			 M1.494,8.316c0-0.206,0.167-0.373,0.373-0.373h0.698c0.206,0,0.373,0.167,0.373,0.373v0.698c0,0.206-0.167,0.373-0.373,0.373
			H1.867c-0.206,0-0.373-0.167-0.373-0.373V8.316z M1.494,10.559c0-0.206,0.167-0.373,0.373-0.373h0.698
			c0.206,0,0.373,0.167,0.373,0.373v0.698c0,0.206-0.167,0.373-0.373,0.373H1.867c-0.206,0-0.373-0.167-0.373-0.373V10.559z
			 M1.494,10.559"/>
	</g>
</g>
</svg>
