<?xml version="1.0" encoding="iso-8859-1"?>
<!-- Generator: Adobe Illustrator 20.1.0, SVG Export Plug-In . SVG Version: 6.00 Build 0)  -->
<svg version="1.1" id="&#x421;&#x43B;&#x43E;&#x439;_1"
	 xmlns="http://www.w3.org/2000/svg" xmlns:xlink="http://www.w3.org/1999/xlink" x="0px" y="0px" viewBox="0 0 30 30"
	 style="enable-background:new 0 0 30 30;" xml:space="preserve">
<g>
	<path style="fill:#3B5998;" d="M30,15c0,8.284-6.716,15-15,15S0,23.284,0,15C0,6.716,6.716,0,15,0S30,6.716,30,15L30,15z M30,15"/>
	<path style="fill:#FFFFFF;" d="M18.77,15.588h-2.677v9.805h-4.055v-9.805h-1.929v-3.447h1.929v-2.23
		c0-1.594,0.757-4.092,4.092-4.092l3.003,0.013v3.345h-2.179c-0.358,0-0.861,0.179-0.861,0.939v2.029h3.032L18.77,15.588z
		 M18.77,15.588"/>
</g>
</svg>
