<?xml version="1.0"?>
<!--Icons from directory ""-->
<svg xmlns="http://www.w3.org/2000/svg" width="32" height="736" viewBox="0 0 32 736"><svg xmlns:xlink="http://www.w3.org/1999/xlink" id="faq-arrow" style="enable-background:new 0 0 11 6" xml:space="preserve" viewBox="0 0 11 6" version="1.1" y="0" x="0px" width="32" height="32"><style type="text/css">	.st0{fill:none;stroke:#E51F25;stroke-linecap:round;stroke-miterlimit:10;}</style><line y1="5.5" x2="10.5" x1="5.5" y2=".5" class="st0"/><line y1="5.5" x2=".5" x1="5.5" y2=".5" class="st0"/></svg><svg xmlns:xlink="http://www.w3.org/1999/xlink" id="fb" style="enable-background:new 0 0 30 30" xml:space="preserve" viewBox="0 0 30 30" version="1.1" y="32" x="0px" width="32" height="32">	<path d="m30 15c0 8.284-6.716 15-15 15s-15-6.716-15-15c0-8.284 6.716-15 15-15s15 6.716 15 15z" fill="#3B5998"/>	<path d="m18.77 15.588h-2.677v9.805h-4.055v-9.805h-1.929v-3.447h1.929v-2.23c0-1.594 0.757-4.092 4.092-4.092l3.003 0.013v3.345h-2.179c-0.358 0-0.861 0.179-0.861 0.939v2.029h3.032l-0.355 3.443z" fill="#fff"/></svg><svg xmlns:xlink="http://www.w3.org/1999/xlink" id="icon-canada" style="enable-background:new 0 0 15 15" xml:space="preserve" viewBox="0 0 15 15" version="1.1" y="64" x="0px" width="32" height="32">	<path d="m15 7.5c0 4.142-3.358 7.5-7.5 7.5s-7.5-3.358-7.5-7.5 3.358-7.5 7.5-7.5 7.5 3.358 7.5 7.5z" fill="#F0F0F0"/><g fill="#D80027">	<path d="m15 7.5c0-2.973-1.73-5.543-4.239-6.756v13.512c2.509-1.213 4.239-3.783 4.239-6.756z"/>	<path d="m0 7.5c0 2.973 1.73 5.543 4.239 6.756v-13.512c-2.509 1.213-4.239 3.783-4.239 6.756z"/>	<path d="m8.804 8.478l1.304-0.652-0.651-0.326v-0.652l-1.305 0.652 0.652-1.304h-0.652l-0.652-0.979-0.652 0.979h-0.652l0.652 1.304-1.305-0.652v0.652l-0.652 0.326 1.304 0.652-0.326 0.652h1.304v0.978h0.652v-0.978h1.305l-0.326-0.652z"/></g></svg><svg xmlns:xlink="http://www.w3.org/1999/xlink" id="icon-diploma" style="enable-background:new 0 0 13.662 15" xml:space="preserve" viewBox="0 0 13.662 15" version="1.1" y="96" x="0px" width="32" height="32">		<defs>			<rect id="icon-diploma-SVGID_1_" x="0" height="15" width="13.662"/>		</defs>		<clipPath id="icon-diploma-SVGID_2_">			<use xlink:href="#icon-diploma-SVGID_1_"/>		</clipPath><g fill="#CDCCCC">		<path style="clip-path:url(#icon-diploma-SVGID_2_)" d="m8.472 3.9c0.046-0.128 0.079-0.257 0.104-0.385 0.403-2.415-0.789-2.501-0.789-2.501s-0.198-0.379-0.717-0.666c-0.349-0.207-0.834-0.366-1.473-0.311-0.207 0.009-0.403 0.048-0.586 0.113-0.235 0.079-0.449 0.196-0.644 0.33-0.238 0.153-0.464 0.336-0.663 0.55-0.315 0.32-0.596 0.739-0.718 1.258-0.101 0.388-0.08 0.794 0.006 1.228 0.025 0.128 0.058 0.256 0.104 0.384-0.238-0.021-0.519 0.116-0.254 1.048 0.186 0.684 0.367 0.874 0.504 0.886 0.125 0.812 0.751 1.842 1.781 2.205 0.422 0.15 0.886 0.15 1.304-0.003 1.014-0.367 1.659-1.393 1.784-2.202 0.137-0.012 0.315-0.202 0.51-0.886 0.263-0.934-0.015-1.072-0.253-1.048z"/>		<path style="clip-path:url(#icon-diploma-SVGID_2_)" d="m11.33 10.302c-1.285-0.003-2.33 1.042-2.33 2.331s1.045 2.33 2.33 2.33c1.289 0 2.33-1.045 2.33-2.33 0.001-1.289-1.044-2.331-2.33-2.331zm0.15 2.844l-0.449 0.446-0.446-0.449-0.431-0.431 0.449-0.449 0.431 0.431 1.026-1.02 0.446 0.449-1.026 1.023z"/>		<path style="clip-path:url(#icon-diploma-SVGID_2_)" d="m11.178 9.481c-0.165-0.217-0.397-0.391-0.724-0.474-1.448-0.369-2.627-1.197-2.627-1.197l-0.919 2.905-0.174 0.547-0.003-0.006-0.15 0.464-0.483-1.374c1.192-1.662-0.241-1.644-0.32-1.644-0.079-0.003-1.512-0.018-0.321 1.643l-0.486 1.375-0.15-0.464-0.003 0.006-0.174-0.547-0.919-2.905s-1.176 0.828-2.627 1.197c-1.081 0.275-1.133 1.521-1.087 2.138 0.006 0 0.067 0.837 0.131 1.204 0 0 2.107 1.371 5.638 1.371 0.944 0 1.784-0.098 2.511-0.241-0.076-0.269-0.116-0.553-0.116-0.846 0-1.689 1.335-3.073 3.003-3.152z"/>	</g></svg><svg xmlns:xlink="http://www.w3.org/1999/xlink" id="icon-email" style="enable-background:new 0 0 15 11.785" xml:space="preserve" viewBox="0 0 15 11.785" version="1.1" y="128" x="0px" width="32" height="32"><g fill="#ccc">	<path d="m13.66 11.785c0.337 0 0.629-0.111 0.877-0.331l-4.249-4.25c-0.103 0.073-0.201 0.144-0.295 0.211-0.317 0.235-0.575 0.419-0.773 0.55s-0.462 0.264-0.791 0.401-0.636 0.205-0.921 0.205h-0.016c-0.285 0-0.592-0.068-0.921-0.205-0.33-0.137-0.593-0.27-0.791-0.401s-0.456-0.315-0.774-0.549c-0.089-0.065-0.187-0.137-0.294-0.212l-4.25 4.25c0.248 0.22 0.54 0.331 0.878 0.331h12.32z"/>	<path d="m0.846 4.529c-0.319-0.213-0.6-0.455-0.846-0.729v6.466l3.746-3.746c-0.75-0.523-1.716-1.186-2.9-1.991z"/>	<path d="m14.163 4.529c-1.14 0.771-2.109 1.436-2.907 1.993l3.744 3.744v-6.466c-0.24 0.268-0.519 0.511-0.837 0.729z"/>	<path d="m13.66 0h-12.32c-0.43 0-0.761 0.145-0.993 0.435-0.231 0.29-0.347 0.653-0.347 1.088 0 0.352 0.154 0.733 0.461 1.143s0.633 0.732 0.979 0.967c0.19 0.134 0.762 0.531 1.716 1.193 0.515 0.356 0.963 0.668 1.349 0.937 0.328 0.229 0.611 0.426 0.845 0.591 0.027 0.019 0.068 0.049 0.124 0.089 0.06 0.042 0.136 0.097 0.231 0.166 0.181 0.131 0.332 0.237 0.451 0.317 0.12 0.081 0.265 0.172 0.435 0.272s0.331 0.176 0.482 0.226c0.151 0.051 0.29 0.076 0.419 0.076h0.016c0.129 0 0.269-0.025 0.419-0.076 0.15-0.05 0.311-0.125 0.481-0.226s0.315-0.191 0.435-0.272 0.271-0.186 0.452-0.317c0.094-0.068 0.17-0.124 0.23-0.167 0.056-0.04 0.098-0.07 0.125-0.089 0.181-0.127 0.465-0.324 0.847-0.589 0.693-0.482 1.715-1.191 3.07-2.131 0.408-0.285 0.748-0.628 1.021-1.029 0.275-0.403 0.412-0.824 0.412-1.265 0-0.369-0.133-0.684-0.398-0.946-0.264-0.262-0.579-0.393-0.942-0.393z"/></g></svg><svg xmlns:xlink="http://www.w3.org/1999/xlink" id="icon-english" style="enable-background:new 0 0 15 12.242" xml:space="preserve" viewBox="0 0 15 12.242" version="1.1" y="160" x="0px" width="32" height="32"><g fill="#CDCCCC">	<path d="m6.059 1.867c-3.346 0-6.059 2.085-6.059 4.662 0 1.261 0.655 2.407 1.717 3.245-0.064 0.855-0.269 1.903-0.866 2.467 1.189 0 2.4-0.742 3.169-1.325 0.637 0.178 1.325 0.274 2.039 0.274 3.346 0 6.059-2.09 6.059-4.662 0-2.576-2.713-4.661-6.059-4.661z"/>	<path d="m14.117 6.979c0.51-0.678 0.802-1.47 0.802-2.317-0.001-2.577-2.714-4.662-6.06-4.662-1.475 0-2.827 0.406-3.875 1.075 0.492-0.091 1.012-0.141 1.544-0.141 3.6 0 6.523 2.295 6.523 5.125 0 1.115-0.451 2.149-1.22 2.992 0.766 0.583 1.981 1.329 3.169 1.329-0.846-0.801-0.906-2.581-0.883-3.401z"/></g></svg><svg xmlns:xlink="http://www.w3.org/1999/xlink" id="icon-exp" style="enable-background:new 0 0 14.985 15" xml:space="preserve" viewBox="0 0 14.985 15" version="1.1" y="192" x="0px" width="32" height="32">		<defs>			<rect id="icon-exp-SVGID_1_" y="0" x="0" height="15" width="14.985"/>		</defs>		<clipPath id="icon-exp-SVGID_2_">			<use xlink:href="#icon-exp-SVGID_1_"/>		</clipPath>		<path style="clip-path:url(#icon-exp-SVGID_2_)" fill-rule="evenodd" clip-rule="evenodd" d="m14.886 6.638c-0.024-0.21-0.268-0.368-0.48-0.368-0.684 0-1.291-0.402-1.546-1.023-0.26-0.636-0.092-1.379 0.418-1.846 0.161-0.147 0.18-0.393 0.046-0.563-0.35-0.445-0.748-0.846-1.183-1.195-0.17-0.136-0.42-0.117-0.568 0.046-0.445 0.493-1.244 0.676-1.862 0.418-0.643-0.27-1.048-0.922-1.008-1.621 0.013-0.22-0.148-0.411-0.367-0.436-0.558-0.065-1.12-0.066-1.68-0.004-0.216 0.024-0.377 0.21-0.369 0.427 0.023 0.692-0.387 1.332-1.023 1.593-0.61 0.249-1.404 0.068-1.848-0.421-0.148-0.161-0.393-0.181-0.564-0.048-0.448 0.352-0.855 0.754-1.208 1.195-0.138 0.171-0.117 0.42 0.045 0.567 0.52 0.471 0.687 1.219 0.417 1.863-0.258 0.614-0.895 1.009-1.625 1.009-0.236-0.007-0.405 0.152-0.431 0.367-0.066 0.561-0.066 1.132-0.003 1.698 0.024 0.211 0.276 0.367 0.49 0.367 0.65-0.017 1.274 0.386 1.536 1.023 0.261 0.636 0.093 1.378-0.418 1.846-0.16 0.147-0.18 0.392-0.045 0.562 0.347 0.442 0.745 0.844 1.181 1.195 0.171 0.138 0.42 0.119 0.568-0.045 0.447-0.494 1.246-0.677 1.861-0.419 0.645 0.27 1.05 0.921 1.01 1.62-0.013 0.22 0.148 0.411 0.366 0.436 0.285 0.033 0.572 0.05 0.86 0.05 0.273 0 0.546-0.015 0.82-0.045 0.216-0.024 0.377-0.211 0.369-0.428-0.025-0.692 0.386-1.332 1.022-1.592 0.615-0.251 1.405-0.067 1.849 0.421 0.148 0.161 0.392 0.18 0.563 0.047 0.447-0.35 0.853-0.752 1.208-1.194 0.138-0.171 0.118-0.42-0.045-0.568-0.52-0.47-0.688-1.219-0.418-1.863 0.254-0.605 0.867-1.012 1.527-1.012l0.092 0.002c0.214 0.017 0.411-0.148 0.437-0.366 0.069-0.559 0.07-1.13 0.006-1.695zm-7.408 3.335c-1.373 0-2.49-1.117-2.49-2.491 0-1.373 1.117-2.491 2.49-2.491 1.374 0 2.491 1.117 2.491 2.491s-1.117 2.491-2.491 2.491z" fill="#CDCCCC"/></svg><svg xmlns:xlink="http://www.w3.org/1999/xlink" id="icon-location" style="enable-background:new 0 0 11 15.967" xml:space="preserve" viewBox="0 0 11 15.967" version="1.1" y="224" x="0px" width="32" height="32">	<path d="m10.74 3.974c-0.057-0.213-0.173-0.44-0.258-0.639-1.021-2.455-3.254-3.335-5.057-3.335-2.412 0-5.07 1.618-5.425 4.953v0.681c0 0.029 0.01 0.284 0.023 0.412 0.199 1.589 1.454 3.278 2.39 4.868 1.007 1.703 2.053 3.378 3.089 5.053 0.639-1.093 1.276-2.2 1.9-3.265 0.171-0.312 0.368-0.624 0.538-0.922 0.113-0.199 0.331-0.398 0.43-0.582 1.007-1.845 2.63-3.704 2.63-5.535v-0.752c0-0.198-0.246-0.894-0.26-0.937zm-5.27 3.421c-0.709 0-1.486-0.354-1.869-1.334-0.057-0.156-0.053-0.469-0.053-0.498v-0.44c0-1.248 1.06-1.816 1.983-1.816 1.135 0 2.013 0.909 2.013 2.044 0 1.136-0.939 2.044-2.074 2.044z" fill="#808081"/></svg><svg xmlns:xlink="http://www.w3.org/1999/xlink" id="icon-mail" style="enable-background:new 0 0 13.007 9.464" xml:space="preserve" viewBox="0 0 13.007 9.464" version="1.1" y="256" x="0px" width="32" height="32">		<defs>			<rect id="icon-mail-SVGID_1_" width="13" height="9.464"/>		</defs>		<clipPath id="icon-mail-SVGID_2_">			<use xlink:href="#icon-mail-SVGID_1_"/>		</clipPath>		<path style="clip-path:url(#icon-mail-SVGID_2_)" d="m13.007 8.759v-8.073l-4.485 4.037 4.485 4.036z" fill="#808081"/>	<g fill="#808081">	<path d="m6.503 6.54l-1.28-1.152-4.485 4.036h11.53l-4.484-4.037-1.281 1.153z"/>	<path d="m12.268 0.022h-11.53l5.765 5.189 5.765-5.189z"/>	<path d="m0 0.686v8.073l4.485-4.037-4.485-4.036z"/></g></svg><svg xmlns:xlink="http://www.w3.org/1999/xlink" id="icon-phone" style="enable-background:new 0 0 12.999 13" xml:space="preserve" viewBox="0 0 12.999 13" version="1.1" y="288" x="0px" width="32" height="32">		<defs>			<rect id="icon-phone-SVGID_1_" x="0" height="13" width="12.999"/>		</defs>		<clipPath id="icon-phone-SVGID_2_">			<use xlink:href="#icon-phone-SVGID_1_"/>		</clipPath>		<path style="clip-path:url(#icon-phone-SVGID_2_)" d="m12.979 10.241c0.027 0.211-0.037 0.394-0.193 0.55l-1.828 1.815c-0.082 0.092-0.19 0.17-0.323 0.234s-0.264 0.105-0.392 0.124c-0.009 0-0.037 0.002-0.083 0.007s-0.105 0.007-0.179 0.007c-0.174 0-0.456-0.03-0.845-0.089-0.39-0.06-0.866-0.206-1.43-0.44s-1.203-0.584-1.918-1.052c-0.715-0.467-1.476-1.109-2.282-1.925-0.64-0.633-1.171-1.238-1.593-1.815-0.421-0.577-0.76-1.111-1.017-1.602-0.257-0.49-0.449-0.935-0.577-1.333-0.129-0.399-0.216-0.742-0.262-1.031s-0.064-0.516-0.055-0.68c0.009-0.165 0.014-0.257 0.014-0.275 0.018-0.128 0.06-0.259 0.124-0.392s0.142-0.241 0.234-0.323l1.828-1.828c0.128-0.129 0.275-0.193 0.44-0.193 0.119 0 0.225 0.034 0.316 0.103 0.092 0.069 0.17 0.154 0.234 0.254l1.471 2.791c0.082 0.147 0.105 0.307 0.069 0.481-0.037 0.174-0.115 0.321-0.234 0.44l-0.674 0.674c-0.018 0.018-0.034 0.048-0.048 0.089s-0.021 0.076-0.021 0.103c0.037 0.193 0.119 0.412 0.247 0.66 0.11 0.22 0.28 0.488 0.509 0.804s0.555 0.681 0.976 1.093c0.412 0.422 0.779 0.749 1.1 0.983s0.589 0.405 0.804 0.515c0.216 0.11 0.381 0.177 0.495 0.2l0.172 0.034c0.018 0 0.048-0.007 0.089-0.021s0.071-0.03 0.089-0.048l0.784-0.797c0.165-0.147 0.357-0.22 0.577-0.22 0.156 0 0.28 0.028 0.371 0.082h0.014l2.653 1.567c0.193 0.12 0.308 0.271 0.344 0.454z" fill="#808081"/></svg><svg xmlns:xlink="http://www.w3.org/1999/xlink" id="icon-play" style="enable-background:new 0 0 43.644 45" xml:space="preserve" viewBox="0 0 43.644 45" version="1.1" y="320" x="0px" width="32" height="32">		<defs>			<rect id="icon-play-SVGID_1_" width="43.636" height="45"/>		</defs>		<clipPath id="icon-play-SVGID_2_">			<use xlink:href="#icon-play-SVGID_1_"/>		</clipPath>		<path style="clip-path:url(#icon-play-SVGID_2_)" d="m40.717 12.271c-6.025-10.435-19.368-14.015-29.803-7.985-10.434 6.019-14.014 19.368-7.985 29.804 6.019 10.435 19.369 14.009 29.804 7.984 10.434-6.025 14.008-19.368 7.984-29.803zm-10.169 26.021c-8.347 4.82-19.021 1.96-23.842-6.387-4.82-8.347-1.961-19.021 6.387-23.842 8.347-4.82 19.027-1.961 23.842 6.386 4.821 8.348 1.96 19.023-6.387 23.843zm-0.873-16.002l-11.426-6.663c-1.039-0.608-1.88-0.123-1.875 1.081l0.059 13.226c0.005 1.21 0.858 1.699 1.901 1.092l11.336-6.546c1.043-0.601 1.049-1.582 0.005-2.19z" fill="#1D8ECE"/></svg><svg xmlns:xlink="http://www.w3.org/1999/xlink" id="icon-questions" style="enable-background:new 0 0 15 15" xml:space="preserve" viewBox="0 0 15 15" version="1.1" y="352" x="0px" width="32" height="32">	<path d="m7.5 0c-4.123 0-7.5 3.377-7.5 7.5s3.377 7.5 7.5 7.5 7.5-3.377 7.5-7.5-3.377-7.5-7.5-7.5zm0.751 12.752h-1.502v-1.502h1.502v1.502zm1.574-5.776l-0.673 0.674c-0.601 0.524-0.901 0.974-0.901 2.098h-1.502v-0.373c0-0.824 0.301-1.575 0.901-2.098l0.901-0.978c0.3-0.224 0.451-0.601 0.451-1.047 0-0.828-0.678-1.502-1.502-1.502s-1.502 0.674-1.502 1.502h-1.497c0-1.652 1.347-3.004 2.999-3.004s2.999 1.352 2.999 3.004c0 0.673-0.3 1.274-0.674 1.724z" fill="#CDCCCC"/></svg><svg xmlns:xlink="http://www.w3.org/1999/xlink" id="icon-russia" style="enable-background:new 0 0 15 15" xml:space="preserve" viewBox="0 0 15 15" version="1.1" y="384" x="0px" width="32" height="32">	<path d="m15 7.5c0 4.142-3.358 7.5-7.5 7.5s-7.5-3.358-7.5-7.5 3.358-7.5 7.5-7.5 7.5 3.358 7.5 7.5z" fill="#F0F0F0"/>	<path d="m14.533 10.109c0.302-0.813 0.467-1.692 0.467-2.609s-0.165-1.796-0.467-2.609h-14.067c-0.301 0.813-0.466 1.692-0.466 2.609s0.165 1.796 0.466 2.609l7.034 0.652 7.033-0.652z" fill="#0052B4"/>	<path d="m7.5 15c3.225 0 5.974-2.035 7.033-4.891h-14.067c1.06 2.856 3.809 4.891 7.034 4.891z" fill="#D80027"/></svg><svg xmlns:xlink="http://www.w3.org/1999/xlink" id="icon-skype-gray" style="enable-background:new 0 0 15 14.785" xml:space="preserve" viewBox="0 0 15 14.785" version="1.1" y="416" x="0px" width="32" height="32">	<path d="m14.287 8.358c0.041-0.305 0.065-0.614 0.065-0.93 0-3.784-3.084-6.852-6.888-6.852-0.378 0-0.749 0.031-1.109 0.09-0.647-0.42-1.417-0.666-2.245-0.666-2.271 0-4.11 1.84-4.11 4.111 0 0.826 0.243 1.594 0.662 2.238-0.057 0.351-0.085 0.712-0.085 1.079 0 3.784 3.082 6.852 6.887 6.852 0.429 0 0.847-0.042 1.254-0.115 0.631 0.392 1.375 0.62 2.172 0.62 2.27 0 4.11-1.84 4.11-4.111 0-0.858-0.262-1.656-0.713-2.316zm-6.179 4.12c-2.189 0.114-3.213-0.37-4.151-1.251-1.048-0.983-0.627-2.105 0.226-2.162s1.365 0.967 1.821 1.252c0.455 0.284 2.185 0.93 3.099-0.115 0.995-1.138-0.662-1.726-1.877-1.904-1.734-0.256-3.924-1.195-3.753-3.044 0.17-1.848 1.57-2.795 3.042-2.929 1.877-0.171 3.099 0.284 4.066 1.109 1.118 0.953 0.513 2.018-0.199 2.104-0.709 0.085-1.506-1.568-3.07-1.592-1.612-0.025-2.702 1.678-0.712 2.162 1.991 0.484 4.124 0.682 4.891 2.502 0.769 1.821-1.193 3.754-3.383 3.868z" fill="#CDCCCC"/></svg><svg xmlns:xlink="http://www.w3.org/1999/xlink" id="icon-skype" style="enable-background:new 0 0 29.993 30" xml:space="preserve" viewBox="0 0 29.993 30" version="1.1" y="448" x="0px" width="32" height="32">	<path d="m29.132 18.185c0.216-0.977 0.33-1.988 0.33-3.028 0-7.79-6.404-14.107-14.306-14.107-0.833 0-1.651 0.071-2.445 0.206-1.279-0.795-2.792-1.256-4.413-1.256-4.584 0-8.298 3.663-8.298 8.183 0 1.509 0.417 2.923 1.14 4.139-0.19 0.915-0.29 1.864-0.29 2.836 0 7.793 6.404 13.875 14.305 13.875 0.895 0 1.771-0.081 2.619-0.236 1.169 0.617 2.504 1.203 3.923 1.203 4.583 0 8.296-3.662 8.296-8.182 0-1.304-0.31-2.538-0.861-3.633z" fill="#00AFF0"/>	<path d="m21.681 20.915c-0.552 0.785-1.36 1.402-2.424 1.845-1.064 0.447-2.324 0.669-3.781 0.669-1.748 0-3.19-0.304-4.327-0.912-0.804-0.437-1.46-1.022-1.964-1.751-0.503-0.729-0.755-1.44-0.755-2.131 0-0.399 0.151-0.743 0.453-1.027 0.302-0.288 0.687-0.429 1.153-0.429 0.379 0 0.7 0.11 0.961 0.334 0.262 0.222 0.486 0.551 0.67 0.989 0.226 0.52 0.469 0.954 0.732 1.302 0.26 0.347 0.63 0.636 1.104 0.862 0.476 0.224 1.102 0.338 1.874 0.338 1.063 0 1.927-0.227 2.593-0.683 0.664-0.455 0.997-1.026 0.997-1.707 0-0.54-0.18-0.982-0.538-1.316-0.359-0.337-0.822-0.595-1.39-0.772-0.568-0.179-1.327-0.368-2.279-0.568-1.272-0.273-2.338-0.595-3.195-0.961-0.858-0.368-1.54-0.868-2.042-1.501-0.505-0.635-0.756-1.423-0.756-2.363 0-0.898 0.265-1.694 0.797-2.391s1.299-1.232 2.308-1.607c1.006-0.375 2.191-0.562 3.552-0.562 1.087 0 2.028 0.125 2.822 0.371 0.794 0.249 1.451 0.58 1.974 0.991 0.524 0.412 0.908 0.843 1.148 1.296 0.242 0.45 0.363 0.894 0.363 1.322 0 0.393-0.15 0.749-0.452 1.063-0.302 0.315-0.679 0.473-1.13 0.473-0.411 0-0.723-0.096-0.937-0.284-0.214-0.189-0.445-0.499-0.694-0.929-0.323-0.615-0.708-1.095-1.16-1.439-0.452-0.345-1.175-0.517-2.175-0.517-0.925 0-1.673 0.186-2.241 0.562-0.568 0.373-0.853 0.824-0.853 1.35 0 0.324 0.099 0.607 0.291 0.845 0.192 0.239 0.459 0.44 0.798 0.61 0.337 0.17 0.68 0.304 1.026 0.402 0.346 0.097 0.919 0.236 1.717 0.422 0.997 0.215 1.902 0.453 2.712 0.711 0.809 0.259 1.499 0.576 2.067 0.944 0.567 0.371 1.011 0.842 1.329 1.41 0.318 0.566 0.478 1.261 0.478 2.084 0.002 0.984-0.276 1.87-0.826 2.655z" fill="#fff"/></svg><svg xmlns:xlink="http://www.w3.org/1999/xlink" id="icon-study" style="enable-background:new 0 0 15 11.184" xml:space="preserve" viewBox="0 0 15 11.184" version="1.1" y="480" x="0px" width="32" height="32">	<g fill="#CDCCCC">		<path d="m13.294 4.812l-5.578 2.126-5.578-2.096-0.317 2.911c-0.015 0.12 0.027 0.24 0.113 0.324s0.207 0.123 0.326 0.106c0.305-0.044 0.617-0.067 0.928-0.067 1.853 0 3.512 0.786 4.127 1.954 0.066 0.128 0.199 0.207 0.342 0.207h0.118c0.143 0 0.275-0.079 0.342-0.206 0.615-1.169 2.273-1.955 4.126-1.955 0.312 0 0.624 0.023 0.929 0.067 0.018 0.003 0.057 0.004 0.059 0.005 0.214 0 0.401-0.161 0.386-0.386-0.001-0.034-0.323-2.99-0.323-2.99z"/>		<path d="m14.749 2.621l-6.896-2.596c-0.088-0.033-0.185-0.033-0.272 0l-6.916 2.603c-0.151 0.056-0.25 0.2-0.25 0.361v4.699h0.867v-4.119l6.298 2.371c0.088 0.033 0.184 0.033 0.272 0l6.897-2.596c0.151-0.057 0.251-0.201 0.251-0.362 0-0.16-0.1-0.305-0.251-0.361z"/>		<path d="m0.002 10.757c-0.011 0.109 0.023 0.217 0.097 0.299 0.073 0.082 0.178 0.128 0.287 0.128h0.924c0.11 0 0.214-0.046 0.287-0.128s0.109-0.19 0.097-0.299l-0.251-2.396h-1.189l-0.252 2.396z"/>	</g></svg><svg xmlns:xlink="http://www.w3.org/1999/xlink" id="icon-tel" style="enable-background:new 0 0 15 15" xml:space="preserve" viewBox="0 0 15 15" version="1.1" y="512" x="0px" width="32" height="32"><path id="icon-tel-call_9_" d="m14.248 12.629c-0.433 1.313-2.125 1.968-3.335 1.859-1.652-0.149-3.45-1.025-4.814-1.99-2.006-1.419-3.884-3.613-4.979-5.942-0.774-1.646-0.947-3.669 0.204-5.169 0.426-0.555 0.885-0.851 1.577-0.884 0.959-0.047 1.094 0.501 1.423 1.357 0.245 0.639 0.573 1.291 0.756 1.954 0.342 1.237-0.855 1.288-1.006 2.3-0.095 0.636 0.679 1.491 1.028 1.946 0.684 0.89 1.506 1.658 2.434 2.243 0.531 0.335 1.389 0.938 1.998 0.605 0.936-0.513 0.848-2.093 2.159-1.559 0.679 0.277 1.335 0.675 1.984 1.024 1 0.539 0.953 1.097 0.571 2.256-0.285 0.866 0.286-0.866 0 0z" stroke="#CDCCCC" stroke-miterlimit="10" fill="#CDCCCC"/></svg><svg xmlns:xlink="http://www.w3.org/1999/xlink" id="icon-ukraine" style="enable-background:new 0 0 15 15" xml:space="preserve" viewBox="0 0 15 15" version="1.1" y="544" x="0px" width="32" height="32"><style type="text/css">	.st0{fill:#F0F0F0;}	.st1{fill:#0052B4;}	.st2{fill:#D6BC00;}	.st3{fill:#0075D6;}</style>	<path class="st0" d="m15 7.5c0 4.1-3.4 7.5-7.5 7.5s-7.5-3.4-7.5-7.5 3.4-7.5 7.5-7.5 7.5 3.4 7.5 7.5z"/>	<path class="st1" d="m14.5 10.1c0.3-0.8 0.5-1.7 0.5-2.6s-0.2-1.8-0.5-2.6h-14c-0.3 0.8-0.5 1.7-0.5 2.6s0.2 1.8 0.5 2.6l7 0.7 7-0.7z"/>	<path class="st2" d="m7.5 15c4.2-0.1 7.5-3.3 7.5-7.5h-15c0.2 4.4 3.4 7.5 7.5 7.5z"/>	<path class="st3" d="m7.5 0c-4.2 0.1-7.5 3.3-7.5 7.5h15c-0.2-4.4-3.4-7.5-7.5-7.5z"/></svg><svg xmlns:xlink="http://www.w3.org/1999/xlink" id="icon-university" style="enable-background:new 0 0 14.201 15.004" xml:space="preserve" viewBox="0 0 14.201 15.004" version="1.1" y="576" x="0px" width="32" height="32">		<defs>			<rect id="icon-university-SVGID_1_" y=".004" width="14.201" height="15"/>		</defs>		<clipPath id="icon-university-SVGID_2_">			<use xlink:href="#icon-university-SVGID_1_"/>		</clipPath>		<path style="clip-path:url(#icon-university-SVGID_2_)" d="m13.73 13.504v-6.78c0-0.354-0.287-0.641-0.641-0.641h-3.042v-1.845c0-0.174-0.094-0.335-0.246-0.42l-2.471-1.377c-0.014-0.008-0.028-0.014-0.042-0.02v-0.786h1.33c0.106 0 0.192-0.086 0.192-0.192v-0.972c0-0.106-0.086-0.192-0.192-0.192h-1.33v-0.087c0-0.106-0.086-0.192-0.192-0.192s-0.193 0.086-0.193 0.192v2.228c-0.014 0.006-0.028 0.013-0.042 0.02l-2.47 1.378c-0.152 0.085-0.247 0.245-0.247 0.42v1.845h-3.042c-0.354 0-0.641 0.287-0.641 0.641v6.78c-0.272 0.123-0.461 0.397-0.461 0.715 0 0.434 0.351 0.785 0.785 0.785h12.622c0.433 0 0.785-0.351 0.785-0.785-0.001-0.318-0.19-0.592-0.462-0.715zm-2.477-5.188c0-0.206 0.167-0.373 0.373-0.373h0.698c0.206 0 0.373 0.167 0.373 0.373v0.698c0 0.206-0.167 0.373-0.373 0.373h-0.698c-0.206 0-0.373-0.167-0.373-0.373v-0.698zm0 2.243c0-0.206 0.167-0.373 0.373-0.373h0.698c0.206 0 0.373 0.167 0.373 0.373v0.698c0 0.206-0.167 0.373-0.373 0.373h-0.698c-0.206 0-0.373-0.167-0.373-0.373v-0.698zm-2.242-2.243c0-0.206 0.167-0.373 0.373-0.373h0.698c0.206 0 0.373 0.167 0.373 0.373v0.698c0 0.206-0.167 0.373-0.373 0.373h-0.698c-0.206 0-0.373-0.167-0.373-0.373v-0.698zm0 2.243c0-0.206 0.167-0.373 0.373-0.373h0.698c0.206 0 0.373 0.167 0.373 0.373v0.698c0 0.206-0.167 0.373-0.373 0.373h-0.698c-0.206 0-0.373-0.167-0.373-0.373v-0.698zm-1.915-6.319c0.584 0 1.057 0.473 1.057 1.057s-0.473 1.057-1.057 1.057-1.057-0.473-1.057-1.057c-0.001-0.584 0.473-1.057 1.057-1.057zm-1.059 6.069c0-0.206 0.167-0.373 0.373-0.373h1.37c0.206 0 0.373 0.167 0.373 0.373v2.94c0 0.067-0.018 0.13-0.049 0.185h-2.018c-0.031-0.055-0.049-0.118-0.049-0.185v-2.94zm-2.301-1.993c0-0.206 0.167-0.373 0.373-0.373h0.698c0.206 0 0.373 0.167 0.373 0.373v0.698c0 0.206-0.167 0.373-0.373 0.373h-0.698c-0.206 0-0.373-0.167-0.373-0.373v-0.698zm0 2.243c0-0.206 0.167-0.373 0.373-0.373h0.698c0.206 0 0.373 0.167 0.373 0.373v0.698c0 0.206-0.167 0.373-0.373 0.373h-0.698c-0.206 0-0.373-0.167-0.373-0.373v-0.698zm-2.242-2.243c0-0.206 0.167-0.373 0.373-0.373h0.698c0.206 0 0.373 0.167 0.373 0.373v0.698c0 0.206-0.167 0.373-0.373 0.373h-0.698c-0.206 0-0.373-0.167-0.373-0.373v-0.698zm0 2.243c0-0.206 0.167-0.373 0.373-0.373h0.698c0.206 0 0.373 0.167 0.373 0.373v0.698c0 0.206-0.167 0.373-0.373 0.373h-0.698c-0.206 0-0.373-0.167-0.373-0.373v-0.698z" fill="#CDCCCC"/></svg><svg xmlns:xlink="http://www.w3.org/1999/xlink" id="icon-whatsapp" style="enable-background:new 0 0 30 30" xml:space="preserve" viewBox="0 0 30 30" version="1.1" y="608" x="0px" width="32" height="32">	<path d="m0 30l2.581-7.738c-1.311-2.203-2.063-4.771-2.063-7.519 0-8.143 6.6-14.743 14.743-14.743 8.139 0 14.739 6.6 14.739 14.743 0 8.14-6.6 14.743-14.739 14.743-2.478 0-4.812-0.614-6.86-1.695l-8.401 2.209z" fill="#2CB742"/>	<path d="m24.664 19.648c-0.68-1.286-3.19-2.756-3.19-2.756-0.568-0.326-1.253-0.361-1.576 0.217 0 0-0.815 0.978-1.023 1.119-0.949 0.642-1.826 0.617-2.712-0.27l-4.119-4.119c-0.884-0.884-0.909-1.763-0.268-2.71 0.142-0.207 1.119-1.023 1.119-1.023 0.576-0.326 0.541-1.011 0.217-1.579 0 0-1.472-2.51-2.758-3.19-0.548-0.29-1.22-0.189-1.657 0.25l-0.91 0.909c-2.884 2.884-1.465 6.14 1.419 9.024l5.274 5.274c2.884 2.884 6.143 4.306 9.026 1.422l0.91-0.909c0.437-0.44 0.538-1.112 0.248-1.659z" fill="#fff"/></svg><svg xmlns:xlink="http://www.w3.org/1999/xlink" id="insta" style="enable-background:new 0 0 30 30" xml:space="preserve" viewBox="0 0 30 30" version="1.1" y="640" x="0px" width="32" height="32">	<path d="m30 15c0 8.284-6.716 15-15 15s-15-6.716-15-15 6.716-15 15-15 15 6.716 15 15z" fill="#6C27B3"/><g fill="#fff">	<path d="m18.47 6.414h-6.94c-2.821 0-5.116 2.295-5.116 5.116v6.941c0 2.821 2.295 5.116 5.116 5.116h6.941c2.82 0 5.115-2.295 5.115-5.116v-6.941c0-2.821-2.295-5.116-5.116-5.116zm3.388 12.056c0 1.871-1.517 3.388-3.388 3.388h-6.94c-1.871 0-3.388-1.517-3.388-3.388v-6.94c0-1.871 1.517-3.388 3.388-3.388h6.941c1.871 0 3.388 1.517 3.388 3.388v6.94z"/>	<path d="m15 10.559c-2.449 0-4.441 1.992-4.441 4.441s1.992 4.441 4.441 4.441 4.441-1.992 4.441-4.441-1.992-4.441-4.441-4.441zm0 7.155c-1.499 0-2.714-1.215-2.714-2.714s1.215-2.714 2.714-2.714c1.499 0 2.714 1.215 2.714 2.714s-1.215 2.714-2.714 2.714z"/>	<path d="m20.514 10.592c0 0.588-0.476 1.064-1.064 1.064s-1.064-0.476-1.064-1.064 0.476-1.064 1.064-1.064c0.587 0 1.064 0.476 1.064 1.064z"/></g></svg><svg xmlns:xlink="http://www.w3.org/1999/xlink" id="viber" style="enable-background:new 0 0 30 30" xml:space="preserve" viewBox="0 0 30 30" version="1.1" y="672" x="0px" width="32" height="32">	<path d="m30 15c0 8.284-6.716 15-15 15s-15-6.716-15-15 6.716-15 15-15 15 6.716 15 15z" fill="#6F3FAA"/><g fill="#fff">	<path d="m22.935 10.542l-0.005-0.02c-0.401-1.62-2.208-3.359-3.867-3.72l-0.019-0.004c-2.684-0.512-5.405-0.512-8.089 0l-0.019 0.004c-1.659 0.362-3.466 2.1-3.867 3.72l-0.005 0.02c-0.496 2.263-0.496 4.558 0 6.82l0.005 0.02c0.384 1.551 2.057 3.21 3.654 3.666v1.808c0 0.655 0.798 0.976 1.251 0.504l1.833-1.905c0.398 0.022 0.795 0.035 1.193 0.035 1.351 0 2.703-0.128 4.044-0.384l0.019-0.004c1.659-0.362 3.466-2.101 3.867-3.721l0.005-0.02c0.496-2.261 0.496-4.556 0-6.819zm-1.45 6.492c-0.267 1.057-1.639 2.371-2.729 2.614-1.427 0.271-2.866 0.387-4.302 0.348-0.029-0.001-0.056 0.01-0.076 0.031-0.204 0.209-1.338 1.374-1.338 1.374l-1.423 1.461c-0.104 0.108-0.287 0.035-0.287-0.115v-2.997c0-0.049-0.036-0.092-0.084-0.101h-0.001c-1.09-0.243-2.461-1.557-2.729-2.614-0.446-2.045-0.446-4.119 0-6.164 0.268-1.057 1.639-2.371 2.729-2.614 2.492-0.474 5.019-0.474 7.511 0 1.091 0.243 2.462 1.557 2.729 2.614 0.446 2.045 0.446 4.118 0 6.163z"/>	<path d="m17.371 18.417c-0.168-0.051-0.327-0.085-0.476-0.146-1.537-0.638-2.951-1.46-4.072-2.721-0.637-0.717-1.136-1.527-1.558-2.383-0.2-0.406-0.368-0.829-0.54-1.248-0.157-0.383 0.074-0.778 0.317-1.066 0.228-0.271 0.521-0.478 0.839-0.63 0.248-0.119 0.492-0.05 0.673 0.16 0.391 0.454 0.751 0.932 1.042 1.458 0.179 0.324 0.13 0.72-0.195 0.94-0.079 0.054-0.15 0.116-0.224 0.177-0.064 0.053-0.125 0.107-0.169 0.179-0.081 0.131-0.085 0.286-0.033 0.429 0.4 1.099 1.074 1.954 2.181 2.414 0.177 0.074 0.355 0.159 0.559 0.136 0.342-0.04 0.452-0.415 0.692-0.611 0.234-0.191 0.533-0.194 0.785-0.034s0.496 0.331 0.739 0.504c0.239 0.17 0.476 0.336 0.696 0.53 0.211 0.186 0.284 0.431 0.165 0.683-0.218 0.463-0.535 0.848-0.993 1.094-0.128 0.068-0.282 0.091-0.428 0.135-0.167-0.05 0.146-0.044 0 0z"/>	<path d="m15.004 9.693c2.01 0.056 3.662 1.39 4.015 3.378 0.06 0.339 0.082 0.685 0.109 1.029 0.011 0.145-0.071 0.282-0.227 0.284-0.161 0.002-0.234-0.133-0.244-0.277-0.021-0.286-0.035-0.573-0.074-0.857-0.208-1.498-1.402-2.737-2.893-3.002-0.224-0.04-0.454-0.05-0.681-0.074-0.144-0.015-0.332-0.024-0.363-0.202-0.027-0.15 0.1-0.269 0.242-0.277 0.038-0.004 0.077-0.002 0.116-0.002 2.01 0.056-0.039 0 0 0z"/>	<path d="m18.059 13.653c-0.003 0.025-0.005 0.084-0.02 0.14-0.054 0.202-0.36 0.227-0.43 0.023-0.021-0.06-0.024-0.129-0.024-0.194-0.001-0.426-0.093-0.851-0.308-1.222-0.221-0.381-0.558-0.701-0.954-0.895-0.239-0.117-0.498-0.19-0.76-0.233-0.114-0.019-0.23-0.03-0.345-0.047-0.14-0.019-0.214-0.108-0.207-0.245 0.006-0.129 0.1-0.222 0.241-0.214 0.461 0.026 0.907 0.126 1.317 0.343 0.834 0.442 1.311 1.139 1.45 2.07 0.006 0.042 0.016 0.084 0.019 0.126 0.008 0.106 0.013 0.21 0.021 0.348-0.003 0.026-0.008-0.138 0 0z"/>	<path d="m16.809 13.605c-0.168 0.003-0.258-0.09-0.276-0.244-0.012-0.107-0.021-0.216-0.047-0.321-0.051-0.206-0.16-0.397-0.333-0.523-0.082-0.06-0.175-0.103-0.272-0.131-0.123-0.036-0.251-0.026-0.374-0.056-0.134-0.033-0.207-0.141-0.187-0.266 0.019-0.114 0.13-0.203 0.255-0.194 0.779 0.056 1.336 0.459 1.416 1.377 0.006 0.065 0.012 0.133-0.002 0.195-0.025 0.104-0.104 0.158-0.18 0.163-0.169 0.003 0.076-0.005 0 0z"/>	</g><path d="m22.935 10.542" fill="#D1D1D1"/>	<path d="m17.371 18.417c0.146-0.044-0.167-0.05 0 0z" fill="#fff"/>	<path d="m15.004 9.693h0.005c0.112 0.004 1.926 0.054-0.005 0z" fill="#fff"/>	<path d="m17.888 10.889" fill="#D1D1D1"/><g fill="#fff">	<path d="m18.059 13.653c-0.008-0.138-0.003 0.026 0 0z"/>	<path d="m16.809 13.605c0.003 0 0.005-0.001 0.008-0.002-0.007 0-0.018 0-0.029 0.001 0.007 0 0.013 0.001 0.021 0.001z"/>	<path d="m16.809 13.605c-0.007 0-0.014-0.001-0.021-0.001-0.037 0-0.075 0.002 0.021 0.001z"/>	<path d="m16.816 13.603c-0.003 0-0.005 0.001-0.008 0.002 0.02-0.002 0.019-0.002 0.008-0.002z"/></g></svg><svg xmlns:xlink="http://www.w3.org/1999/xlink" id="vk" style="enable-background:new 0 0 30 30" xml:space="preserve" viewBox="0 0 30 30" version="1.1" y="704" x="0px" width="32" height="32">	<path d="m30 15c0 8.284-6.716 15-15 15s-15-6.716-15-15c0-8.284 6.716-15 15-15s15 6.716 15 15z" fill="#4D76A1"/>	<path fill-rule="evenodd" clip-rule="evenodd" d="m14.433 21.579h1.178s0.355-0.039 0.536-0.235c0.167-0.18 0.162-0.517 0.162-0.517s-0.023-1.58 0.71-1.812c0.723-0.23 1.65 1.526 2.635 2.201 0.744 0.512 1.31 0.399 1.31 0.399l2.629-0.036s1.376-0.085 0.723-1.167c-0.053-0.089-0.38-0.8-1.956-2.263-1.649-1.53-1.428-1.283 0.559-3.931 1.21-1.612 1.694-2.597 1.543-3.018-0.145-0.402-1.034-0.295-1.034-0.295l-2.963 0.018s-0.219-0.03-0.382 0.067c-0.159 0.095-0.261 0.319-0.261 0.319s-0.469 1.248-1.094 2.308c-1.319 2.241-1.846 2.358-2.062 2.22-0.501-0.325-0.376-1.303-0.376-1.997 0-2.17 0.329-3.075-0.641-3.309-0.321-0.078-0.559-0.129-1.381-0.137-1.058-0.012-1.952 0.003-2.458 0.251-0.337 0.164-0.597 0.533-0.439 0.553 0.196 0.026 0.64 0.12 0.875 0.44 0.303 0.412 0.292 1.339 0.292 1.339s0.175 2.555-0.407 2.872c-0.399 0.218-0.947-0.227-2.123-2.259-0.602-1.04-1.056-2.191-1.056-2.191s-0.088-0.214-0.244-0.329c-0.191-0.14-0.456-0.184-0.456-0.184l-2.814 0.018s-0.423 0.012-0.578 0.196c-0.137 0.163-0.01 0.501-0.01 0.501s2.203 5.155 4.697 7.752c2.288 2.382 4.886 2.226 4.886 2.226z" fill="#fff"/></svg></svg>
