<?xml version="1.0" encoding="iso-8859-1"?>
<!-- Generator: Adobe Illustrator 20.1.0, SVG Export Plug-In . SVG Version: 6.00 Build 0)  -->
<svg version="1.1" id="&#x421;&#x43B;&#x43E;&#x439;_1"
	 xmlns="http://www.w3.org/2000/svg" xmlns:xlink="http://www.w3.org/1999/xlink" x="0px" y="0px" viewBox="0 0 11 15.967"
	 style="enable-background:new 0 0 11 15.967;" xml:space="preserve">
<g>
	<path style="fill:#808081;" d="M10.74,3.974c-0.057-0.213-0.173-0.44-0.258-0.639C9.461,0.88,7.228,0,5.425,0
		C3.013,0,0.355,1.618,0,4.953v0.681c0,0.029,0.01,0.284,0.023,0.412c0.199,1.589,1.454,3.278,2.39,4.868
		c1.007,1.703,2.053,3.378,3.089,5.053c0.639-1.093,1.276-2.2,1.9-3.265C7.573,12.39,7.77,12.078,7.94,11.78
		c0.113-0.199,0.331-0.398,0.43-0.582C9.377,9.353,11,7.494,11,5.663V4.911C11,4.713,10.754,4.017,10.74,3.974L10.74,3.974z
		 M5.47,7.395c-0.709,0-1.486-0.354-1.869-1.334C3.544,5.905,3.548,5.592,3.548,5.563v-0.44c0-1.248,1.06-1.816,1.983-1.816
		c1.135,0,2.013,0.909,2.013,2.044C7.544,6.487,6.605,7.395,5.47,7.395L5.47,7.395z M5.47,7.395"/>
</g>
</svg>
