<?xml version="1.0" encoding="iso-8859-1"?>
<!-- Generator: Adobe Illustrator 20.1.0, SVG Export Plug-In . SVG Version: 6.00 Build 0)  -->
<svg version="1.1" id="&#x421;&#x43B;&#x43E;&#x439;_1"
	 xmlns="http://www.w3.org/2000/svg" xmlns:xlink="http://www.w3.org/1999/xlink" x="0px" y="0px" viewBox="0 0 15 12.242"
	 style="enable-background:new 0 0 15 12.242;" xml:space="preserve">
<g>
	<path style="fill:#CDCCCC;" d="M6.059,1.867C2.713,1.867,0,3.952,0,6.529C0,7.79,0.655,8.936,1.717,9.774
		c-0.064,0.855-0.269,1.903-0.866,2.467c1.189,0,2.4-0.742,3.169-1.325c0.637,0.178,1.325,0.274,2.039,0.274
		c3.346,0,6.059-2.09,6.059-4.662C12.118,3.952,9.405,1.867,6.059,1.867L6.059,1.867z M6.059,1.867"/>
	<path style="fill:#CDCCCC;" d="M14.117,6.979c0.51-0.678,0.802-1.47,0.802-2.317C14.918,2.085,12.205,0,8.859,0
		C7.384,0,6.032,0.406,4.984,1.075c0.492-0.091,1.012-0.141,1.544-0.141c3.6,0,6.523,2.295,6.523,5.125
		c0,1.115-0.451,2.149-1.22,2.992c0.766,0.583,1.981,1.329,3.169,1.329C14.154,9.579,14.094,7.799,14.117,6.979L14.117,6.979z
		 M14.117,6.979"/>
</g>
</svg>
