<?xml version="1.0" encoding="iso-8859-1"?>
<!-- Generator: Adobe Illustrator 20.1.0, SVG Export Plug-In . SVG Version: 6.00 Build 0)  -->
<svg version="1.1" id="&#x421;&#x43B;&#x43E;&#x439;_1"
	 xmlns="http://www.w3.org/2000/svg" xmlns:xlink="http://www.w3.org/1999/xlink" x="0px" y="0px" viewBox="0 0 12.999 13"
	 style="enable-background:new 0 0 12.999 13;" xml:space="preserve">
<g>
	<g>
		<defs>
			<rect id="SVGID_1_" x="0" width="12.999" height="13"/>
		</defs>
		<clipPath id="SVGID_2_">
			<use xlink:href="#SVGID_1_"  style="overflow:visible;"/>
		</clipPath>
		<path style="clip-path:url(#SVGID_2_);fill:#808081;" d="M12.979,10.241c0.027,0.211-0.037,0.394-0.193,0.55l-1.828,1.815
			c-0.082,0.092-0.19,0.17-0.323,0.234c-0.133,0.064-0.264,0.105-0.392,0.124c-0.009,0-0.037,0.002-0.083,0.007
			c-0.046,0.005-0.105,0.007-0.179,0.007c-0.174,0-0.456-0.03-0.845-0.089c-0.39-0.06-0.866-0.206-1.43-0.44
			c-0.564-0.234-1.203-0.584-1.918-1.052c-0.715-0.467-1.476-1.109-2.282-1.925C2.866,8.839,2.335,8.234,1.913,7.657
			C1.492,7.08,1.153,6.546,0.896,6.055c-0.257-0.49-0.449-0.935-0.577-1.333C0.19,4.323,0.103,3.98,0.057,3.691
			c-0.046-0.289-0.064-0.516-0.055-0.68c0.009-0.165,0.014-0.257,0.014-0.275c0.018-0.128,0.06-0.259,0.124-0.392
			c0.064-0.133,0.142-0.241,0.234-0.323l1.828-1.828C2.33,0.064,2.477,0,2.642,0c0.119,0,0.225,0.034,0.316,0.103
			c0.092,0.069,0.17,0.154,0.234,0.254l1.471,2.791c0.082,0.147,0.105,0.307,0.069,0.481C4.695,3.803,4.617,3.95,4.498,4.069
			L3.824,4.743C3.806,4.761,3.79,4.791,3.776,4.832C3.762,4.873,3.755,4.908,3.755,4.935c0.037,0.193,0.119,0.412,0.247,0.66
			c0.11,0.22,0.28,0.488,0.509,0.804C4.74,6.715,5.066,7.08,5.487,7.492c0.412,0.422,0.779,0.749,1.1,0.983
			C6.908,8.709,7.176,8.88,7.391,8.99C7.607,9.1,7.772,9.167,7.886,9.19l0.172,0.034c0.018,0,0.048-0.007,0.089-0.021
			c0.041-0.014,0.071-0.03,0.089-0.048L9.02,8.358c0.165-0.147,0.357-0.22,0.577-0.22c0.156,0,0.28,0.028,0.371,0.082h0.014
			l2.653,1.567C12.828,9.907,12.943,10.058,12.979,10.241L12.979,10.241z M12.979,10.241"/>
	</g>
</g>
</svg>
