<?xml version="1.0" encoding="iso-8859-1"?>
<!-- Generator: Adobe Illustrator 20.1.0, SVG Export Plug-In . SVG Version: 6.00 Build 0)  -->
<svg version="1.1" id="&#x421;&#x43B;&#x43E;&#x439;_1"
	 xmlns="http://www.w3.org/2000/svg" xmlns:xlink="http://www.w3.org/1999/xlink" x="0px" y="0px" viewBox="0 0 15 15"
	 style="enable-background:new 0 0 15 15;" xml:space="preserve">
<g>
	<path style="fill:#F0F0F0;" d="M15,7.5c0,4.142-3.358,7.5-7.5,7.5C3.358,15,0,11.642,0,7.5C0,3.358,3.358,0,7.5,0
		C11.642,0,15,3.358,15,7.5L15,7.5z M15,7.5"/>
	<path style="fill:#D80027;" d="M15,7.5c0-2.973-1.73-5.543-4.239-6.756v13.512C13.27,13.043,15,10.473,15,7.5L15,7.5z M15,7.5"/>
	<path style="fill:#D80027;" d="M0,7.5c0,2.973,1.73,5.543,4.239,6.756V0.744C1.73,1.957,0,4.527,0,7.5L0,7.5z M0,7.5"/>
	<path style="fill:#D80027;" d="M8.804,8.478l1.304-0.652L9.457,7.5V6.848L8.152,7.5l0.652-1.304H8.152L7.5,5.217L6.848,6.196H6.196
		L6.848,7.5L5.543,6.848V7.5L4.891,7.826l1.304,0.652L5.869,9.13h1.304v0.978h0.652V9.13H9.13L8.804,8.478z M8.804,8.478"/>
</g>
</svg>
