<?xml version="1.0" encoding="utf-8"?>
<!-- Generator: Adobe Illustrator 19.0.1, SVG Export Plug-In . SVG Version: 6.00 Build 0)  -->
<svg version="1.1" id="Слой_1" xmlns="http://www.w3.org/2000/svg" xmlns:xlink="http://www.w3.org/1999/xlink" x="0px" y="0px"
	 viewBox="0 0 97.7 20.1" style="enable-background:new 0 0 97.7 20.1;" xml:space="preserve">
<style type="text/css">
	.st0{fill:#181E26;}
	.st1{clip-path:url(#SVGID_2_);fill:#181E26;}
	.st2{clip-path:url(#SVGID_2_);fill:#253851;}
</style>
<polygon class="st0" points="44.2,2.4 41.7,2.4 41.7,9 41.1,9 41.1,2.4 38.7,2.4 38.7,1.9 44.2,1.9 "/>
<polygon class="st0" points="49,5.6 45.7,5.6 45.7,8.5 49.5,8.5 49.5,9 45.1,9 45.1,1.9 49.5,1.9 49.5,2.4 45.7,2.4 45.7,5.1 
	49,5.1 "/>
<g>
	<defs>
		<rect id="SVGID_1_" y="0" width="97.7" height="20.1"/>
	</defs>
	<clipPath id="SVGID_2_">
		<use xlink:href="#SVGID_1_"  style="overflow:visible;"/>
	</clipPath>
	<path class="st1" d="M51.2,6.1V9h-0.6V1.9H53c0.7,0,1.3,0.2,1.8,0.6c0.4,0.4,0.6,0.9,0.6,1.6c0,0.7-0.2,1.2-0.6,1.5
		c-0.4,0.4-1,0.5-1.8,0.5H51.2z M51.2,5.6H53c0.6,0,1-0.1,1.3-0.4c0.3-0.3,0.5-0.7,0.5-1.2c0-0.5-0.2-0.9-0.5-1.2
		C54,2.6,53.6,2.4,53,2.4h-1.9V5.6z"/>
	<path class="st1" d="M56.8,6.1V9h-0.6V1.9h2.4c0.7,0,1.3,0.2,1.8,0.6C60.8,2.8,61,3.4,61,4c0,0.7-0.2,1.2-0.6,1.5
		c-0.4,0.4-1,0.5-1.8,0.5H56.8z M56.8,5.6h1.8c0.6,0,1-0.1,1.3-0.4c0.3-0.3,0.5-0.7,0.5-1.2c0-0.5-0.2-0.9-0.5-1.2
		c-0.3-0.3-0.7-0.4-1.3-0.4h-1.9V5.6z"/>
	<polygon class="st1" points="66.6,1.9 67.2,1.9 67.2,9 66.6,9 66.6,2.9 62.5,9 61.9,9 61.9,1.9 62.5,1.9 62.5,8 	"/>
	<polygon class="st1" points="73.7,2.4 71.3,2.4 71.3,9 70.7,9 70.7,2.4 68.3,2.4 68.3,1.9 73.7,1.9 	"/>
	<path class="st1" d="M79.5,5.8c0,0.7-0.1,1.2-0.3,1.7c-0.2,0.5-0.5,0.9-1,1.1c-0.4,0.3-0.9,0.4-1.5,0.4c-0.8,0-1.5-0.3-2-0.9
		S74,6.8,74,5.8V5.1c0-0.6,0.1-1.2,0.3-1.7c0.2-0.5,0.6-0.9,1-1.2c0.4-0.3,0.9-0.4,1.4-0.4s1,0.1,1.4,0.4c0.4,0.3,0.7,0.6,1,1.1
		s0.3,1,0.4,1.7V5.8z M78.9,5.1c0-0.9-0.2-1.5-0.6-2c-0.4-0.5-0.9-0.7-1.6-0.7c-0.7,0-1.2,0.2-1.6,0.7c-0.4,0.5-0.6,1.2-0.6,2v0.7
		c0,0.8,0.2,1.5,0.6,2s0.9,0.7,1.6,0.7c0.7,0,1.2-0.2,1.6-0.7c0.4-0.5,0.6-1.2,0.6-2V5.1z"/>
	<path class="st1" d="M81.2,6.1V9h-0.6V1.9H83c0.7,0,1.3,0.2,1.8,0.6c0.4,0.4,0.6,0.9,0.6,1.6c0,0.7-0.2,1.2-0.6,1.5
		c-0.4,0.4-1,0.5-1.8,0.5H81.2z M81.2,5.6H83c0.6,0,1-0.1,1.3-0.4c0.3-0.3,0.5-0.7,0.5-1.2c0-0.5-0.2-0.9-0.5-1.2
		C84,2.6,83.6,2.4,83,2.4h-1.9V5.6z"/>
	<polygon class="st1" points="91.1,1.9 91.7,1.9 91.7,9 91.1,9 91.1,2.9 87,9 86.4,9 86.4,1.9 87,1.9 87,8 	"/>
	<path class="st1" d="M97.1,9V6.1h-2L93.5,9h-0.6l1.7-3.1c-0.5-0.2-0.8-0.4-1.1-0.7c-0.2-0.3-0.4-0.7-0.4-1.2c0-0.7,0.2-1.2,0.6-1.6
		c0.4-0.4,1-0.6,1.8-0.6h2.2V9H97.1z M93.7,4c0,0.5,0.1,0.8,0.4,1.1c0.3,0.3,0.7,0.4,1.2,0.4h1.7V2.4h-1.6c-0.6,0-1,0.1-1.3,0.4
		C93.9,3.1,93.7,3.5,93.7,4"/>
	<path class="st1" d="M44,15.1c0,0.6-0.1,1.1-0.3,1.6c-0.2,0.5-0.5,0.8-0.9,1c-0.4,0.2-0.8,0.4-1.3,0.4c-0.5,0-0.9-0.1-1.3-0.4
		c-0.4-0.2-0.7-0.6-0.9-1c-0.2-0.4-0.3-1-0.3-1.5v-0.3c0-0.6,0.1-1.1,0.3-1.6c0.2-0.5,0.5-0.8,0.9-1c0.4-0.2,0.8-0.4,1.3-0.4
		c0.5,0,0.9,0.1,1.3,0.4c0.4,0.2,0.7,0.6,0.9,1c0.2,0.4,0.3,1,0.3,1.6V15.1z M42.9,14.8c0-0.7-0.1-1.2-0.4-1.6
		c-0.3-0.4-0.6-0.5-1.1-0.5c-0.5,0-0.8,0.2-1.1,0.5c-0.3,0.4-0.4,0.9-0.4,1.5v0.4c0,0.7,0.1,1.2,0.4,1.6c0.3,0.4,0.6,0.5,1.1,0.5
		c0.5,0,0.8-0.2,1.1-0.5c0.3-0.4,0.4-0.9,0.4-1.6V14.8z"/>
	<path class="st1" d="M48.6,12.7h-2.8v1.5H47c0.4,0,0.8,0.1,1.2,0.2c0.3,0.2,0.6,0.4,0.8,0.7c0.2,0.3,0.3,0.6,0.3,1
		c0,0.6-0.2,1-0.6,1.4S47.7,18,47.1,18h-2.3v-6.1h3.9V12.7z M45.8,15.1v2.1H47c0.4,0,0.6-0.1,0.8-0.3c0.2-0.2,0.3-0.5,0.3-0.8
		c0-0.3-0.1-0.6-0.3-0.7c-0.2-0.2-0.5-0.3-0.8-0.3H45.8z"/>
	<path class="st1" d="M51.1,15.7V18H50v-6.1h2.3c0.7,0,1.2,0.2,1.6,0.5c0.4,0.4,0.6,0.8,0.6,1.4c0,0.6-0.2,1.1-0.6,1.4
		c-0.4,0.3-0.9,0.5-1.7,0.5H51.1z M51.1,14.9h1.3c0.4,0,0.7-0.1,0.9-0.3c0.2-0.2,0.3-0.4,0.3-0.8c0-0.3-0.1-0.6-0.3-0.8
		c-0.2-0.2-0.5-0.3-0.8-0.3h-1.3V14.9z"/>
	<path class="st1" d="M58.1,16.6h-2.4L55.2,18h-1.1l2.3-6.1h1l2.3,6.1h-1.1L58.1,16.6z M56,15.7h1.8l-0.9-2.5L56,15.7z"/>
	<path class="st1" d="M63.4,13.6c0-0.3-0.1-0.5-0.3-0.7c-0.2-0.2-0.5-0.2-0.8-0.2c-0.3,0-0.6,0.1-0.8,0.2c-0.2,0.2-0.3,0.4-0.3,0.6
		h-1.1c0-0.3,0.1-0.6,0.3-0.9c0.2-0.3,0.4-0.5,0.8-0.6c0.3-0.1,0.7-0.2,1.1-0.2c0.7,0,1.2,0.2,1.6,0.5c0.4,0.3,0.6,0.7,0.6,1.3
		c0,0.3-0.1,0.5-0.3,0.8c-0.2,0.2-0.4,0.4-0.7,0.6c0.3,0.1,0.6,0.3,0.8,0.5c0.2,0.2,0.3,0.5,0.3,0.9c0,0.5-0.2,1-0.6,1.3
		c-0.4,0.3-1,0.5-1.7,0.5c-0.4,0-0.8-0.1-1.2-0.2c-0.3-0.2-0.6-0.4-0.8-0.6c-0.2-0.3-0.3-0.6-0.3-0.9h1.1c0,0.3,0.1,0.5,0.3,0.7
		c0.2,0.2,0.5,0.3,0.8,0.3c0.4,0,0.7-0.1,0.9-0.3c0.2-0.2,0.3-0.4,0.3-0.7c0-0.3-0.1-0.6-0.3-0.7c-0.2-0.2-0.5-0.2-0.9-0.2h-0.7
		v-0.8h0.7C63.1,14.5,63.4,14.2,63.4,13.6"/>
	<path class="st1" d="M70.2,15.1c0,0.6-0.1,1.1-0.3,1.6c-0.2,0.5-0.5,0.8-0.9,1c-0.4,0.2-0.8,0.4-1.3,0.4c-0.5,0-0.9-0.1-1.3-0.4
		c-0.4-0.2-0.7-0.6-0.9-1c-0.2-0.4-0.3-1-0.3-1.5v-0.3c0-0.6,0.1-1.1,0.3-1.6c0.2-0.5,0.5-0.8,0.9-1c0.4-0.2,0.8-0.4,1.3-0.4
		c0.5,0,0.9,0.1,1.3,0.4c0.4,0.2,0.7,0.6,0.9,1c0.2,0.4,0.3,1,0.3,1.6V15.1z M69.2,14.8c0-0.7-0.1-1.2-0.4-1.6
		c-0.3-0.4-0.6-0.5-1.1-0.5c-0.5,0-0.8,0.2-1.1,0.5c-0.3,0.4-0.4,0.9-0.4,1.5v0.4c0,0.7,0.1,1.2,0.4,1.6c0.3,0.4,0.6,0.5,1.1,0.5
		c0.5,0,0.8-0.2,1.1-0.5c0.3-0.4,0.4-0.9,0.4-1.6V14.8z"/>
	<path class="st1" d="M71,18v-6.1h2.1c0.7,0,1.2,0.1,1.6,0.4c0.4,0.3,0.5,0.7,0.5,1.2c0,0.3-0.1,0.5-0.2,0.8
		c-0.2,0.2-0.4,0.4-0.7,0.5c0.3,0.1,0.6,0.3,0.8,0.5c0.2,0.2,0.3,0.5,0.3,0.9c0,0.6-0.2,1-0.6,1.3c-0.4,0.3-0.9,0.5-1.6,0.5H71z
		 M72.1,14.5h1c0.3,0,0.6-0.1,0.8-0.2c0.2-0.1,0.3-0.4,0.3-0.6c0-0.3-0.1-0.5-0.3-0.7c-0.2-0.1-0.4-0.2-0.8-0.2h-1V14.5z M72.1,15.2
		v1.9h1.2c0.3,0,0.6-0.1,0.8-0.2c0.2-0.2,0.3-0.4,0.3-0.7c0-0.6-0.3-1-1-1H72.1z"/>
	<path class="st1" d="M79.5,16.6h-2.4L76.7,18h-1.1l2.3-6.1h1l2.3,6.1H80L79.5,16.6z M77.5,15.7h1.8l-0.9-2.5L77.5,15.7z"/>
	<polygon class="st1" points="86.6,18 85.5,18 85.5,15.3 82.8,15.3 82.8,18 81.7,18 81.7,11.9 82.8,11.9 82.8,14.4 85.5,14.4 
		85.5,11.9 86.6,11.9 	"/>
	<polygon class="st1" points="91.3,11.9 92.4,11.9 92.4,18 91.3,18 91.3,13.6 88.6,18 87.6,18 87.6,11.9 88.6,11.9 88.6,16.2 	"/>
	<path class="st1" d="M96.7,18v-2.3h-1.2L94.3,18h-1.1l1.4-2.6c-0.7-0.3-1.1-0.9-1.1-1.6c0-0.6,0.2-1,0.6-1.4
		c0.4-0.3,0.9-0.5,1.6-0.5h2.1V18H96.7z M94.5,13.8c0,0.3,0.1,0.6,0.3,0.8c0.2,0.2,0.5,0.3,0.9,0.3h1v-2.2h-1
		c-0.4,0-0.7,0.1-0.9,0.3C94.6,13.2,94.5,13.5,94.5,13.8"/>
	<path class="st1" d="M27.8,3.2l-3.6-2c-3-1.7-6.6-1.7-9.7,0l-3.6,2H27.8z"/>
	<path class="st2" d="M14.5,18.8c1.1,0.6,2.3,1,3.5,1.2V5.1H7.6L0.6,8.9c-0.9,0.5-0.9,1.7,0,2.2l1.1,0.6V17
		c-0.3,0.1-0.5,0.3-0.5,0.6c0,0.2,0.1,0.4,0.2,0.5L1,20.1h2.1l-0.6-1.9c0.1-0.1,0.2-0.3,0.2-0.5c0-0.3-0.2-0.6-0.5-0.6v-5L14.5,18.8
		z"/>
	<path class="st2" d="M36.4,9.9c0-0.9-0.1-1.6-0.4-2.1l-1.6-0.9c-1.1,0.1-1.7,1-1.8,2.7l0,0.7c0,1,0.2,1.7,0.5,2.2
		c0.3,0.4,0.7,0.7,1.2,0.8l1.8-1c0.2-0.5,0.4-1.1,0.4-2V9.9z"/>
	<path class="st1" d="M30.7,12.9c-0.4-0.7-0.6-1.6-0.6-2.5V9.9c0-1,0.2-1.8,0.5-2.6C31,6.6,31.5,6,32.1,5.6l-0.9-0.5H20.3V20
		c1.3-0.1,2.7-0.5,3.9-1.2l7.8-4.3C31.5,14.1,31,13.6,30.7,12.9"/>
</g>
</svg>
