<?xml version="1.0" encoding="utf-8"?>
<!-- Generator: Adobe Illustrator 19.0.1, SVG Export Plug-In . SVG Version: 6.00 Build 0)  -->
<svg version="1.1" id="Слой_1" xmlns="http://www.w3.org/2000/svg" xmlns:xlink="http://www.w3.org/1999/xlink" x="0px" y="0px"
	 viewBox="0 0 43.6 43.6" style="enable-background:new 0 0 43.6 43.6;" xml:space="preserve">
<style type="text/css">
	.st0{fill:#FFFFFF;}
	.st1{fill:#6FAEE2;}
</style>
<g>
	<path class="st0" d="M40.7,10.9c-6-10.4-19.4-14-29.8-8c-10.4,6-14,19.4-8,29.8c6,10.4,19.4,14,29.8,8
		C43.2,34.6,46.7,21.3,40.7,10.9z M30.5,36.9c-8.3,4.8-19,2-23.8-6.4c-4.8-8.3-2-19,6.4-23.8c8.3-4.8,19-2,23.8,6.4
		C41.8,21.4,38.9,32.1,30.5,36.9z"/>
	<path class="st1" d="M29.7,20.9l-11.4-6.7c-1-0.6-1.9-0.1-1.9,1.1l0.1,13.2c0,1.2,0.9,1.7,1.9,1.1l11.3-6.5
		C30.7,22.5,30.7,21.5,29.7,20.9z"/>
</g>
</svg>
