<?xml version="1.0" encoding="iso-8859-1"?>
<!-- Generator: Adobe Illustrator 20.1.0, SVG Export Plug-In . SVG Version: 6.00 Build 0)  -->
<svg version="1.1" id="&#x421;&#x43B;&#x43E;&#x439;_1"
	 xmlns="http://www.w3.org/2000/svg" xmlns:xlink="http://www.w3.org/1999/xlink" x="0px" y="0px" viewBox="0 0 30 30"
	 style="enable-background:new 0 0 30 30;" xml:space="preserve">
<g>
	<path style="fill:#4D76A1;" d="M30,15c0,8.284-6.716,15-15,15S0,23.284,0,15C0,6.716,6.716,0,15,0S30,6.716,30,15L30,15z M30,15"/>
	<path style="fill-rule:evenodd;clip-rule:evenodd;fill:#FFFFFF;" d="M14.433,21.579h1.178c0,0,0.355-0.039,0.536-0.235
		c0.167-0.18,0.162-0.517,0.162-0.517s-0.023-1.58,0.71-1.812c0.723-0.23,1.65,1.526,2.635,2.201c0.744,0.512,1.31,0.399,1.31,0.399
		l2.629-0.036c0,0,1.376-0.085,0.723-1.167c-0.053-0.089-0.38-0.8-1.956-2.263c-1.649-1.53-1.428-1.283,0.559-3.931
		c1.21-1.612,1.694-2.597,1.543-3.018c-0.145-0.402-1.034-0.295-1.034-0.295l-2.963,0.018c0,0-0.219-0.03-0.382,0.067
		c-0.159,0.095-0.261,0.319-0.261,0.319s-0.469,1.248-1.094,2.308c-1.319,2.241-1.846,2.358-2.062,2.22
		c-0.501-0.325-0.376-1.303-0.376-1.997c0-2.17,0.329-3.075-0.641-3.309c-0.321-0.078-0.559-0.129-1.381-0.137
		c-1.058-0.012-1.952,0.003-2.458,0.251c-0.337,0.164-0.597,0.533-0.439,0.553c0.196,0.026,0.64,0.12,0.875,0.44
		c0.303,0.412,0.292,1.339,0.292,1.339s0.175,2.555-0.407,2.872c-0.399,0.218-0.947-0.227-2.123-2.259
		c-0.602-1.04-1.056-2.191-1.056-2.191s-0.088-0.214-0.244-0.329c-0.191-0.14-0.456-0.184-0.456-0.184l-2.814,0.018
		c0,0-0.423,0.012-0.578,0.196c-0.137,0.163-0.01,0.501-0.01,0.501s2.203,5.155,4.697,7.752
		C11.835,21.735,14.433,21.579,14.433,21.579L14.433,21.579z M14.433,21.579"/>
</g>
</svg>
